<svg width="35" height="35" viewBox="0 0 35 35" fill="none" xmlns="http://www.w3.org/2000/svg">
<path fill-rule="evenodd" clip-rule="evenodd" d="M14.4033 22.1758C8.79747 22.1758 4.00977 23.0231 4.00977 26.4181C4.00977 29.8131 8.76831 30.691 14.4033 30.691C20.0106 30.691 24.7968 29.8422 24.7968 26.4487C24.7968 23.0552 20.0398 22.1758 14.4033 22.1758Z" stroke="#130F26" stroke-width="1.5" stroke-linecap="round" stroke-linejoin="round"/>
<path fill-rule="evenodd" clip-rule="evenodd" d="M14.4024 17.335C18.0818 17.335 21.0641 14.3528 21.0641 10.6734C21.0641 6.99401 18.0818 4.01172 14.4024 4.01172C10.7245 4.01172 7.74223 6.99401 7.74223 10.6734C7.72911 14.3396 10.6895 17.3219 14.3572 17.335H14.4024Z" stroke="#130F26" stroke-width="1.5" stroke-linecap="round" stroke-linejoin="round"/>
<path d="M28.0046 12.6445V18.4924" stroke="#130F26" stroke-width="1.5" stroke-linecap="round" stroke-linejoin="round"/>
<path d="M30.988 15.569H25.0234" stroke="#130F26" stroke-width="1.5" stroke-linecap="round" stroke-linejoin="round"/>
</svg>
