<svg width="280" height="187" viewBox="0 0 280 187" fill="none" xmlns="http://www.w3.org/2000/svg">
<path d="M0.000134706 95.8948C1.54272 95.8948 2.79324 94.6443 2.79324 93.1017C2.79324 91.5591 1.54272 90.3086 0.000134706 90.3086C-1.54245 90.3086 -2.79297 91.5591 -2.79297 93.1017C-2.79297 94.6443 -1.54245 95.8948 0.000134706 95.8948Z" fill="black"/>
<path d="M279.311 95.8948C280.853 95.8948 282.104 94.6443 282.104 93.1017C282.104 91.5591 280.853 90.3086 279.311 90.3086C277.768 90.3086 276.518 91.5591 276.518 93.1017C276.518 94.6443 277.768 95.8948 279.311 95.8948Z" fill="black"/>
<path d="M125.085 218.188C134.993 208.279 143.69 197.228 150.99 185.268" stroke="#FFCC66" stroke-width="1.86207"/>
<path d="M0 93.1016H279.31H0Z" fill="#DDEEFF" fill-opacity="0.2"/>
<path d="M0 93.1016H279.31" stroke="#AACCCC" stroke-width="1.86207"/>
<path d="M139.655 95.8948C141.198 95.8948 142.449 94.6443 142.449 93.1017C142.449 91.5591 141.198 90.3086 139.655 90.3086C138.113 90.3086 136.862 91.5591 136.862 93.1017C136.862 94.6443 138.113 95.8948 139.655 95.8948Z" fill="black"/>
<path d="M139.655 -46.5527V232.758V-46.5527Z" fill="#8888FF" fill-opacity="0.2"/>
<path d="M139.655 -46.5527V232.758" stroke="#8888FF" stroke-width="1.86207"/>
<path d="M139.655 74.4824H158.276H139.655Z" fill="#8888FF" fill-opacity="0.2"/>
<path d="M139.655 74.4824H158.276" stroke="#8888FF" stroke-width="1.86207"/>
<path d="M158.276 74.4824V93.1031V74.4824Z" fill="#8888FF" fill-opacity="0.2"/>
<path d="M158.276 74.4824V93.1031" stroke="#8888FF" stroke-width="1.86207"/>
</svg>
