<svg width="22" height="22" viewBox="0 0 22 22" fill="none" xmlns="http://www.w3.org/2000/svg">
<path d="M21.769 9.99486C21.5429 9.5281 21.166 9.15123 20.6993 8.92521L3.30963 0.510424C2.16407 -0.0445718 0.785564 0.434212 0.230568 1.57977C-0.0521738 2.16344 -0.075942 2.83925 0.165161 3.44133L3.18903 10.9995L0.165161 18.5585C-0.305836 19.7442 0.273603 21.0873 1.45936 21.5583C1.72747 21.6648 2.01318 21.7201 2.30168 21.7214C2.65073 21.7214 2.99528 21.6426 3.30963 21.4909L20.6993 13.0738C21.8449 12.519 22.3238 11.1405 21.769 9.99486ZM2.64047 20.1057C2.25856 20.2906 1.79909 20.1309 1.61421 19.749C1.51999 19.5544 1.51216 19.3292 1.59256 19.1285L4.53652 11.7678H19.8718L2.64047 20.1057ZM4.53657 10.2312L1.5926 2.87049C1.47007 2.57708 1.54615 2.23825 1.78234 2.02542C2.01097 1.80264 2.3562 1.75037 2.64047 1.89559L19.8718 10.2312H4.53657Z" fill="#A6A6A6" fill-opacity="0.45"/>
</svg>
