<svg width="20" height="20" viewBox="0 0 20 20" fill="none" xmlns="http://www.w3.org/2000/svg">
<path fill-rule="evenodd" clip-rule="evenodd" d="M14.303 0.75H5.651C2.639 0.75 0.75 2.884 0.75 5.904V14.05C0.75 17.07 2.631 19.204 5.651 19.204H14.298C17.323 19.204 19.203 17.07 19.203 14.05V5.904C19.207 2.884 17.326 0.75 14.303 0.75Z" stroke="#A8A8A8" stroke-width="1.5" stroke-linecap="round" stroke-linejoin="round"/>
<path fill-rule="evenodd" clip-rule="evenodd" d="M8.70372 6.78545C8.70372 7.80545 7.87772 8.63145 6.85772 8.63145C5.83872 8.63145 5.01172 7.80545 5.01172 6.78545C5.01172 5.76545 5.83872 4.93945 6.85772 4.93945C7.87672 4.94045 8.70272 5.76645 8.70372 6.78545Z" stroke="#A8A8A8" stroke-width="1.5" stroke-linecap="round" stroke-linejoin="round"/>
<path d="M19.207 12.951C18.284 12.001 16.509 10.082 14.579 10.082C12.648 10.082 11.535 14.315 9.678 14.315C7.821 14.315 6.134 12.401 4.646 13.628C3.158 14.854 1.75 17.361 1.75 17.361" stroke="#A8A8A8" stroke-width="1.5" stroke-linecap="round" stroke-linejoin="round"/>
</svg>
