<svg width="45" height="45" viewBox="0 0 45 45" fill="none" xmlns="http://www.w3.org/2000/svg">
<g clip-path="url(#clip0_286_3612)">
<path d="M22.5 45C34.9264 45 45 34.9264 45 22.5C45 10.0736 34.9264 0 22.5 0C10.0736 0 0 10.0736 0 22.5C0 34.9264 10.0736 45 22.5 45Z" fill="#5EB3D1"/>
<path d="M22.6077 32.1738C22.5723 32.1738 22.5368 32.2093 22.466 32.2093C22.4305 32.2093 22.3951 32.1738 22.3242 32.1738H22.6077Z" fill="#E6E9EE"/>
<path d="M40.6077 35.7881C36.5329 41.3511 29.9069 45.0007 22.466 45.0007C15.025 45.0007 8.43446 41.3865 4.32422 35.7881C7.5132 32.3866 11.836 30.5795 15.4502 29.6582C15.1313 32.2448 16.4778 35.7173 16.5132 35.611C17.8597 32.4928 22.4305 32.2094 22.4305 32.2094C22.4305 32.2094 27.0014 32.4574 28.3833 35.611C28.4187 35.6818 29.7652 32.2448 29.4463 29.6582C33.0959 30.5795 37.4187 32.3866 40.6077 35.7881Z" fill="#E6E9EE"/>
<path d="M28.064 27.2828C28.064 27.7434 27.7806 30.1883 22.6073 32.1725H22.3239C17.1507 30.1883 16.8672 27.7434 16.8672 27.2828C16.9026 26.3615 17.1152 25.4402 17.505 24.5898C18.9223 26.1843 20.6231 27.2473 22.4656 27.2473C24.2727 27.2473 26.0089 26.2198 27.4262 24.5898C27.816 25.4402 28.064 26.3615 28.064 27.2828Z" fill="#FFD05B"/>
<path d="M25.5482 32.9885L24.4143 35.2562H20.5167L19.3828 32.9885C20.9419 32.3153 22.4655 32.209 22.4655 32.209C22.4655 32.209 24.0245 32.3153 25.5482 32.9885Z" fill="#F1543F"/>
<path d="M19.3125 44.7871C20.3401 44.9288 21.4031 44.9997 22.5015 44.9997C23.5645 44.9997 24.6275 44.9288 25.6905 44.7871L24.4503 35.291H20.5527L19.3125 44.7871Z" fill="#FF7058"/>
<path d="M28.0633 27.2129C28.0633 27.2129 28.3113 30.0475 22.4648 32.2089C22.4648 32.2089 27.0357 32.457 28.4176 35.6105C28.453 35.7523 31.1105 28.8782 28.0633 27.2129Z" fill="#333333"/>
<path d="M16.8661 27.2129C13.8543 28.8782 16.4764 35.7168 16.5472 35.6105C17.8937 32.4924 22.5 32.209 22.5 32.209C16.6181 30.0475 16.8661 27.2129 16.8661 27.2129Z" fill="#333333"/>
<path d="M27.7069 25.2985C26.2187 26.893 24.4471 27.9205 22.4628 27.9205C20.4786 27.9205 18.7069 26.893 17.2188 25.2985C17.2896 25.0505 17.3959 24.8024 17.5022 24.5898C18.9195 26.1843 20.6203 27.2473 22.4628 27.2473C24.3054 27.2473 26.0062 26.2198 27.4235 24.5898C27.5298 24.8024 27.6361 25.0505 27.7069 25.2985Z" fill="#F9B54C"/>
<path d="M32.1391 19.8785C31.395 21.1187 30.2611 21.8628 29.4107 21.721C27.7099 24.8746 25.2296 27.2132 22.4658 27.2132C19.702 27.2132 17.2217 24.8392 15.5209 21.721C14.6705 21.8273 13.5367 21.1187 12.7926 19.8785C11.9068 18.4258 11.8713 16.8313 12.7217 16.2998C12.9343 16.1935 13.1469 16.1226 13.395 16.158C13.9619 17.6108 14.7414 18.4966 14.7414 18.4966C13.9265 13.9966 17.2572 13.5006 16.6902 9.17773C16.6902 9.17773 18.7808 13.8195 24.769 10.5596L24.3083 11.4455C32.6706 9.5675 29.8713 19.4179 29.8005 19.6659C30.7572 18.4612 31.3595 17.2565 31.7139 16.158C31.8556 16.158 32.0328 16.2289 32.1391 16.2998C33.0603 16.7958 33.0249 18.4258 32.1391 19.8785Z" fill="#FFD05B"/>
<path d="M27.2845 4.49983C27.9577 4.42896 29.0562 5.03133 29.0562 5.03133C26.0443 1.59432 21.1191 3.79117 21.1191 3.79117C22.7845 2.37385 24.2727 2.51558 24.2727 2.51558C17.2215 1.45259 16.0168 5.66912 16.0168 5.66912C15.6979 5.17306 15.6979 4.4644 15.7333 4.11007C15.2373 4.96046 15.7688 6.66125 15.7688 6.66125C15.2727 5.42109 13.5365 5.63369 13.5365 5.63369C15.0247 5.88172 15.2727 6.80298 15.2727 6.80298C11.5522 8.18487 12.19 12.0471 12.19 12.0471L13.0758 10.9841C11.9774 15.2006 14.7766 18.4605 14.7766 18.4605C13.9617 13.9605 17.2924 13.4644 16.7254 9.14156C16.7254 9.14156 18.816 13.7833 24.8042 10.5235L24.3436 11.4093C32.8121 9.49589 29.8357 19.6652 29.8357 19.6652C32.8475 15.8384 32.3869 11.9053 32.3869 11.9053L32.7412 13.3227C33.6979 6.94471 27.2845 4.49983 27.2845 4.49983Z" fill="#324A5E"/>
</g>
<defs>
<clipPath id="clip0_286_3612">
<rect width="45" height="45" fill="white"/>
</clipPath>
</defs>
</svg>
