<svg width="31" height="26" viewBox="0 0 31 26" fill="none" xmlns="http://www.w3.org/2000/svg">
<path d="M29.8564 14.5947H25.7549V10.6529H29.8564C30.4727 10.6529 30.9723 10.1538 30.9723 9.53736C30.9723 8.92088 30.4727 8.4215 29.8564 8.4215H25.7549V2.95193C25.7549 2.15351 25.5971 1.56749 25.2861 1.21052C24.9905 0.870915 24.6019 0.712891 24.0637 0.712891C23.5501 0.712891 23.1761 0.869825 22.8862 1.20731C22.5788 1.56465 22.4228 2.15176 22.4228 2.95229V8.42217H14.7076L11.4272 3.45815C11.1464 3.01514 10.8825 2.60016 10.6261 2.20183C10.3953 1.8431 10.1702 1.55102 9.95756 1.33294C9.76932 1.13986 9.55481 0.990432 9.30391 0.875577C9.06717 0.767503 8.7662 0.713254 8.41013 0.713254C7.95598 0.713254 7.54373 0.837675 7.14897 1.0933C6.75833 1.34614 6.48829 1.65873 6.32337 2.04901C6.1786 2.41992 6.10201 2.98826 6.10201 3.72189V8.42181H2.04121C1.42504 8.42187 0.925781 8.92125 0.925781 9.53766C0.925781 10.1541 1.42504 10.6532 2.04127 10.6532H6.10207V14.5955H2.04127C1.42504 14.5955 0.925781 15.0947 0.925781 15.7113C0.925781 16.3276 1.42504 16.8265 2.04127 16.8265H6.10207V23.0713C6.10207 23.8461 6.26488 24.4262 6.58735 24.7948C6.89401 25.1463 7.28283 25.3094 7.81085 25.3094C8.32028 25.3094 8.70608 25.1455 9.026 24.7934C9.35362 24.4327 9.51933 23.853 9.51933 23.0714V16.8265H16.5007L20.2787 22.6196C20.5414 23.0026 20.8127 23.3891 21.0832 23.7681C21.3272 24.1085 21.5935 24.4083 21.8745 24.6588C22.1275 24.8854 22.3987 25.0514 22.6807 25.1527C22.9709 25.2572 23.3102 25.3102 23.6866 25.3102C24.7084 25.3102 25.7548 24.9974 25.7548 22.6777V16.8265H29.8563C30.4726 16.8265 30.9722 16.3268 30.9722 15.7106C30.9723 15.0944 30.4727 14.5947 29.8564 14.5947ZM22.4228 10.6528V14.5947H18.7875L16.1828 10.6528H22.4228ZM9.51939 6.12343L11.0185 8.4215H9.51939V6.12343ZM9.51939 14.5947V10.6529H12.4741L15.0453 14.5947H9.51939ZM22.4228 20.0967L20.2623 16.8265H22.4228V20.0967Z" fill="#333333"/>
</svg>
