<svg width="41" height="39" viewBox="0 0 41 39" fill="none" xmlns="http://www.w3.org/2000/svg">
<ellipse cx="20.5" cy="19.5" rx="20.5" ry="19.5" fill="#00D9B6"/>
<g clip-path="url(#clip0_286_3728)">
<path d="M30.359 19.1312C31.065 18.1771 31.6943 17.1686 32.2411 16.1152L33 14.6398L31.3698 14.9382C31.0354 14.9973 30.6979 15.0364 30.359 15.0555C31.065 14.1014 31.6943 13.093 32.2411 12.0396L32.9992 10.5658L31.3689 10.865C29.1333 11.2804 26.824 10.8003 24.9392 9.52818L19.9898 6.19922L7 14.9251L10.0339 16.9629L7 19.0007L10.0339 21.0385L7 23.0764L19.9898 31.8023L24.7615 28.5956C27.9238 26.4682 30.4972 23.5763 32.2428 20.1884L33 18.7154L31.3698 19.0138C31.0354 19.0728 30.6979 19.112 30.359 19.1312ZM9.92303 14.9251L19.9898 8.16367L24.032 10.8788C25.8024 12.0749 27.902 12.6887 30.0378 12.6346C28.4636 15.2062 26.3537 17.4083 23.8519 19.0912L19.9898 21.6866L9.92303 14.9251ZM23.8519 27.2425L19.9898 29.8378L9.92303 23.0764L11.4954 22.0167L19.9898 27.7226L24.7615 24.5159C26.3499 23.448 27.7956 22.1819 29.0638 20.7484C29.3898 20.772 29.7159 20.785 30.0419 20.7785C28.4676 23.3533 26.3562 25.5582 23.8519 27.2425ZM23.8519 23.1668L19.9898 25.7622L9.92303 19.0007L11.4954 17.9411L19.9898 23.6469L24.7615 20.4402C26.3499 19.3723 27.7956 18.1063 29.0638 16.6727C29.3898 16.6964 29.7159 16.7094 30.0419 16.7029C28.4676 19.2777 26.3562 21.4825 23.8519 23.1668Z" fill="white"/>
<path d="M15.099 13.9922H13.4688V15.6224H15.099V13.9922Z" fill="white"/>
<path d="M18.3607 12.3633H16.7305V13.9935H18.3607V12.3633Z" fill="white"/>
<path d="M20.8021 10.7344H19.1719V12.3646H20.8021V10.7344Z" fill="white"/>
<path d="M18.3568 15.625H16.7266V17.2552H18.3568V15.625Z" fill="white"/>
<path d="M20.8021 18.0703H19.1719V19.7006H20.8021V18.0703Z" fill="white"/>
<path d="M21.6224 13.9922H19.9922V15.6224H21.6224V13.9922Z" fill="white"/>
<path d="M24.0638 12.3633H22.4336V13.9935H24.0638V12.3633Z" fill="white"/>
<path d="M24.0677 15.625H22.4375V17.2552H24.0677V15.625Z" fill="white"/>
</g>
<defs>
<clipPath id="clip0_286_3728">
<rect width="26" height="24.7317" fill="white" transform="translate(7 7.60938)"/>
</clipPath>
</defs>
</svg>
