<svg width="277" height="50" viewBox="0 0 277 50" fill="none" xmlns="http://www.w3.org/2000/svg">
<rect opacity="0.1" width="277" height="50" rx="13.0169" fill="#00D9B6"/>
<path d="M66.322 32L64.54 27.59H59.608L57.844 32H55.36L60.58 19.4H63.604L68.824 32H66.322ZM61.372 23.144L60.346 25.7H63.766L62.758 23.144C62.578 22.664 62.368 22.058 62.128 21.326H62.02C61.9 21.698 61.684 22.304 61.372 23.144ZM74.4341 32.18L74.4161 32.198C72.9401 32.198 71.7401 31.76 70.8161 30.884C69.9041 30.008 69.4481 28.886 69.4481 27.518C69.4481 26.138 69.9101 25.016 70.8341 24.152C71.7581 23.276 72.9521 22.838 74.4161 22.838C75.5801 22.838 76.5701 23.12 77.3861 23.684C78.2141 24.248 78.7601 25.01 79.0241 25.97H76.6121C76.4081 25.598 76.1141 25.304 75.7301 25.088C75.3461 24.86 74.9081 24.746 74.4161 24.746C73.6481 24.746 73.0121 25.004 72.5081 25.52C72.0161 26.036 71.7701 26.696 71.7701 27.5C71.7701 28.304 72.0161 28.964 72.5081 29.48C73.0121 29.996 73.6601 30.254 74.4521 30.254C75.2561 30.254 75.8921 29.99 76.3601 29.462C76.8401 28.922 77.0381 28.232 76.9541 27.392H79.2941C79.3781 28.808 78.9641 29.96 78.0521 30.848C77.1401 31.736 75.9341 32.18 74.4341 32.18ZM85.6951 30.236L85.6591 30.272C86.2591 30.272 86.8051 30.17 87.2971 29.966V31.838C86.6611 32.078 85.9051 32.198 85.0291 32.198C83.9971 32.198 83.1991 31.904 82.6351 31.316C82.0831 30.728 81.8071 29.93 81.8071 28.922V24.89H80.1511V23.216L80.7271 23.18C81.5551 23.132 81.9931 22.634 82.0411 21.686L82.1131 20.408H84.0391V23H87.0271V24.872H84.0391V28.76C84.0391 29.744 84.5911 30.236 85.6951 30.236ZM91.3866 21.128C91.0626 21.416 90.6546 21.56 90.1626 21.56C89.6706 21.56 89.2566 21.416 88.9206 21.128C88.5966 20.828 88.4346 20.456 88.4346 20.012C88.4346 19.568 88.5966 19.202 88.9206 18.914C89.2566 18.614 89.6706 18.464 90.1626 18.464C90.6546 18.464 91.0626 18.614 91.3866 18.914C91.7226 19.202 91.8906 19.568 91.8906 20.012C91.8906 20.456 91.7226 20.828 91.3866 21.128ZM89.0286 32V23H91.2786V32H89.0286ZM96.4952 32L92.9312 23H95.3432L97.7012 29.84H97.7732L100.131 23H102.525L98.9252 32H96.4952ZM110.903 23L113.153 22.982V31.982H110.903V30.2H110.867C110.567 30.824 110.129 31.31 109.553 31.658C108.989 31.994 108.335 32.162 107.591 32.162C106.331 32.162 105.275 31.718 104.423 30.83C103.583 29.942 103.163 28.832 103.163 27.5C103.163 26.156 103.583 25.04 104.423 24.152C105.275 23.252 106.331 22.802 107.591 22.802C108.335 22.802 108.989 22.976 109.553 23.324C110.129 23.672 110.567 24.158 110.867 24.782H110.903V23ZM108.239 30.236V30.218C109.043 30.218 109.703 29.96 110.219 29.444C110.735 28.928 110.993 28.274 110.993 27.482C110.993 26.69 110.735 26.036 110.219 25.52C109.703 25.004 109.043 24.746 108.239 24.746C107.435 24.746 106.775 25.004 106.259 25.52C105.743 26.036 105.485 26.69 105.485 27.482C105.485 28.286 105.743 28.946 106.259 29.462C106.775 29.978 107.435 30.236 108.239 30.236ZM120.219 30.236L120.183 30.272C120.783 30.272 121.329 30.17 121.821 29.966V31.838C121.185 32.078 120.429 32.198 119.553 32.198C118.521 32.198 117.723 31.904 117.159 31.316C116.607 30.728 116.331 29.93 116.331 28.922V24.89H114.675V23.216L115.25 23.18C116.079 23.132 116.517 22.634 116.565 21.686L116.637 20.408H118.562V23H121.551V24.872H118.562V28.76C118.562 29.744 119.115 30.236 120.219 30.236ZM130.107 28.292H132.393C132.321 29.444 131.841 30.38 130.953 31.1C130.077 31.808 128.985 32.162 127.677 32.162C126.225 32.162 125.037 31.724 124.113 30.848C123.201 29.96 122.745 28.826 122.745 27.446C122.745 26.09 123.195 24.98 124.095 24.116C125.007 23.24 126.177 22.802 127.605 22.802C129.033 22.802 130.167 23.222 131.007 24.062C131.859 24.902 132.261 26.024 132.213 27.428H124.923C124.935 28.304 125.187 29 125.679 29.516C126.171 30.02 126.819 30.272 127.623 30.272C128.307 30.272 128.877 30.092 129.333 29.732C129.801 29.36 130.059 28.88 130.107 28.292ZM127.569 24.476C126.453 24.476 125.673 24.926 125.229 25.826H129.819C129.447 24.926 128.697 24.476 127.569 24.476ZM149.449 32L147.667 27.59H142.735L140.971 32H138.487L143.707 19.4H146.731L151.951 32H149.449ZM144.499 23.144L143.473 25.7H146.893L145.885 23.144C145.705 22.664 145.495 22.058 145.255 21.326H145.147C145.027 21.698 144.811 22.304 144.499 23.144ZM157.82 20.822H157.784C157.112 20.822 156.656 20.966 156.416 21.254C156.176 21.542 156.056 21.926 156.056 22.406V23H158.918V24.872H156.056V32H153.842V24.872H152.186V23H153.842V22.262C153.842 21.194 154.154 20.36 154.778 19.76C155.414 19.148 156.296 18.842 157.424 18.842C157.964 18.842 158.468 18.908 158.936 19.04V20.966C158.528 20.87 158.156 20.822 157.82 20.822ZM165.45 22.82L165.432 22.802C165.588 22.802 165.702 22.808 165.774 22.82V25.052H165.324C163.416 25.052 162.462 26.21 162.462 28.526V32H160.212V23H162.372V25.646H162.39C162.846 23.762 163.866 22.82 165.45 22.82ZM169.785 21.128C169.461 21.416 169.053 21.56 168.561 21.56C168.069 21.56 167.655 21.416 167.319 21.128C166.995 20.828 166.833 20.456 166.833 20.012C166.833 19.568 166.995 19.202 167.319 18.914C167.655 18.614 168.069 18.464 168.561 18.464C169.053 18.464 169.461 18.614 169.785 18.914C170.121 19.202 170.289 19.568 170.289 20.012C170.289 20.456 170.121 20.828 169.785 21.128ZM167.427 32V23H169.677V32H167.427ZM172.188 32V19.04H174.438V32H172.188ZM183.668 28.292H185.954C185.882 29.444 185.402 30.38 184.514 31.1C183.638 31.808 182.546 32.162 181.238 32.162C179.786 32.162 178.598 31.724 177.674 30.848C176.762 29.96 176.306 28.826 176.306 27.446C176.306 26.09 176.756 24.98 177.656 24.116C178.568 23.24 179.738 22.802 181.166 22.802C182.594 22.802 183.728 23.222 184.568 24.062C185.42 24.902 185.822 26.024 185.774 27.428H178.484C178.496 28.304 178.748 29 179.24 29.516C179.732 30.02 180.38 30.272 181.184 30.272C181.868 30.272 182.438 30.092 182.894 29.732C183.362 29.36 183.62 28.88 183.668 28.292ZM181.13 24.476C180.014 24.476 179.234 24.926 178.79 25.826H183.38C183.008 24.926 182.258 24.476 181.13 24.476ZM194.979 23L197.229 22.982V31.982H194.979V30.2H194.943C194.643 30.824 194.205 31.31 193.629 31.658C193.065 31.994 192.411 32.162 191.667 32.162C190.407 32.162 189.351 31.718 188.499 30.83C187.659 29.942 187.239 28.832 187.239 27.5C187.239 26.156 187.659 25.04 188.499 24.152C189.351 23.252 190.407 22.802 191.667 22.802C192.411 22.802 193.065 22.976 193.629 23.324C194.205 23.672 194.643 24.158 194.943 24.782H194.979V23ZM192.315 30.236V30.218C193.119 30.218 193.779 29.96 194.295 29.444C194.811 28.928 195.069 28.274 195.069 27.482C195.069 26.69 194.811 26.036 194.295 25.52C193.779 25.004 193.119 24.746 192.315 24.746C191.511 24.746 190.851 25.004 190.335 25.52C189.819 26.036 189.561 26.69 189.561 27.482C189.561 28.286 189.819 28.946 190.335 29.462C190.851 29.978 191.511 30.236 192.315 30.236ZM204.667 22.82L204.649 22.802C204.805 22.802 204.919 22.808 204.991 22.82V25.052H204.541C202.633 25.052 201.679 26.21 201.679 28.526V32H199.429V23H201.589V25.646H201.607C202.063 23.762 203.083 22.82 204.667 22.82ZM211.895 22.82H211.877C212.921 22.82 213.749 23.144 214.361 23.792C214.973 24.44 215.279 25.328 215.279 26.456V32H212.993V26.87C212.993 26.21 212.819 25.694 212.471 25.322C212.123 24.95 211.637 24.764 211.013 24.764C210.317 24.764 209.765 24.992 209.357 25.448C208.949 25.904 208.745 26.528 208.745 27.32V32.018H206.495V23.018H208.745V24.782H208.763C209.315 23.474 210.359 22.82 211.895 22.82ZM230.433 20.516C231.249 21.248 231.657 22.208 231.657 23.396C231.657 24.584 231.255 25.55 230.451 26.294C229.647 27.026 228.597 27.392 227.301 27.392H224.961V32H222.621V19.4H227.301C228.585 19.4 229.629 19.772 230.433 20.516ZM227.031 25.358C227.679 25.358 228.201 25.178 228.597 24.818C228.993 24.458 229.191 23.984 229.191 23.396C229.191 22.808 228.993 22.334 228.597 21.974C228.201 21.614 227.679 21.434 227.031 21.434H224.943V25.358H227.031ZM238.575 22.82L238.557 22.802C238.713 22.802 238.827 22.808 238.899 22.82V25.052H238.449C236.541 25.052 235.587 26.21 235.587 28.526V32H233.337V23H235.497V25.646H235.515C235.971 23.762 236.991 22.82 238.575 22.82ZM244.679 32.18C243.215 32.18 242.015 31.742 241.079 30.866C240.143 29.99 239.675 28.868 239.675 27.5C239.675 26.132 240.143 25.01 241.079 24.134C242.015 23.258 243.215 22.82 244.679 22.82C246.131 22.82 247.325 23.258 248.261 24.134C249.197 25.01 249.665 26.132 249.665 27.5C249.665 28.868 249.197 29.99 248.261 30.866C247.325 31.742 246.131 32.18 244.679 32.18ZM242.717 29.498C243.233 30.014 243.887 30.272 244.679 30.272C245.471 30.272 246.125 30.014 246.641 29.498C247.157 28.97 247.415 28.304 247.415 27.5C247.415 26.696 247.157 26.036 246.641 25.52C246.125 24.992 245.471 24.728 244.679 24.728C243.887 24.728 243.233 24.992 242.717 25.52C242.213 26.036 241.961 26.696 241.961 27.5C241.961 28.304 242.213 28.97 242.717 29.498Z" fill="#00D9B6"/>
<path d="M23.312 34.2144H40.688C40.976 34.2144 41.216 33.9744 41.216 33.6864V32.3904H22.784V33.6864C22.784 34.0224 23.024 34.2144 23.312 34.2144ZM42.08 18.8544C41.264 18.8544 40.64 19.4784 40.64 20.2944C40.64 20.6784 40.784 21.0624 41.072 21.3024L36.752 25.7184L32.672 18.4224C33.104 18.1824 33.392 17.7024 33.392 17.1744C33.392 16.3584 32.768 15.7344 31.952 15.7344C31.136 15.7344 30.512 16.3584 30.512 17.1744C30.512 17.7024 30.8 18.1824 31.232 18.4224L27.152 25.7184L22.832 21.3024C23.216 21.0624 23.36 20.6784 23.36 20.2944C23.36 19.4784 22.736 18.8544 21.92 18.8544C21.104 18.8544 20.48 19.4784 20.48 20.2944C20.48 21.1104 21.104 21.7344 21.92 21.7344C21.968 21.7344 22.016 21.7344 22.016 21.7344L22.784 31.5264H41.216L41.984 21.7344C42.032 21.7344 42.08 21.7344 42.08 21.7344C42.896 21.7344 43.52 21.1104 43.52 20.2944C43.52 19.5264 42.896 18.8544 42.08 18.8544Z" fill="#00D9B6"/>
</svg>
