<svg width="36" height="36" viewBox="0 0 36 36" fill="none" xmlns="http://www.w3.org/2000/svg">
<rect width="36" height="36" rx="18" fill="#84BB29"/>
<path d="M9.0844 15.9087C9.8667 15.8001 12.0053 19.7587 12.682 20.4673C12.682 20.4673 11.6777 21.0936 11.1632 21.4926C10.6676 21.8768 10.1109 20.9871 9.71632 20.4595C9.43645 20.0853 8.10652 16.0445 9.0844 15.9087Z" fill="#D2EFF3"/>
<rect x="9.46875" y="17.3379" width="0.39779" height="3.55639" rx="0.198895" transform="rotate(-37.3935 9.46875 17.3379)" fill="#C3E1E5"/>
<path d="M11.0013 19.0649C10.9404 18.9881 10.8276 18.9744 10.7609 19.0462C10.6572 19.1579 10.5759 19.2894 10.5223 19.4334C10.4481 19.6331 10.43 19.8493 10.4699 20.0586C10.5099 20.2678 10.6064 20.4622 10.749 20.6204C10.8519 20.7346 10.9759 20.8268 11.1135 20.8925C11.202 20.9347 11.3018 20.8803 11.3301 20.7865C11.3584 20.6927 11.3038 20.5953 11.2183 20.5473C11.1416 20.5043 11.0721 20.4488 11.0127 20.3829C10.9135 20.2728 10.8463 20.1376 10.8185 19.992C10.7907 19.8464 10.8033 19.696 10.855 19.5571C10.8859 19.4739 10.9301 19.3967 10.9855 19.3284C11.0473 19.2524 11.0622 19.1417 11.0013 19.0649Z" fill="#C3E1E5"/>
<ellipse cx="13.2343" cy="11.8704" rx="1.45302" ry="1.45144" fill="#7D6350"/>
<ellipse cx="10.8456" cy="16.2444" rx="1.45301" ry="1.45143" fill="#7D6350"/>
<ellipse cx="11.779" cy="13.7192" rx="2.07005" ry="2.0678" fill="#7D6350"/>
<ellipse cx="15.6408" cy="10.8164" rx="1.99043" ry="1.98827" fill="#7D6350"/>
<ellipse cx="19.0652" cy="10.18" rx="2.22928" ry="2.22686" fill="#7D6350"/>
<ellipse cx="21.9302" cy="11.1346" rx="1.59234" ry="1.59061" fill="#7D6350"/>
<ellipse cx="24.1004" cy="12.4262" rx="1.29378" ry="1.29238" fill="#7D6350"/>
<ellipse cx="24.9367" cy="13.2219" rx="0.895701" ry="0.894721" fill="#7D6350"/>
<path d="M13.0059 22.9136C13.0059 21.6394 14.0388 20.6064 15.313 20.6064C16.5873 20.6064 17.6202 21.6394 17.6202 22.9136V29.0763C17.6202 30.1585 16.6453 30.9798 15.5788 30.7959C15.4027 30.7655 15.2323 30.7083 15.0736 30.6262L14.8459 30.5085C13.7156 29.9238 13.0059 28.7576 13.0059 27.4851V22.9136Z" fill="#C3E1E6"/>
<path d="M25.2789 19.8628C25.2789 24.384 24.4236 27.4606 18.3772 27.1931C13.7628 26.5867 11.0977 23.6349 11.0977 19.1137C11.0977 14.5925 13.9943 10.8203 18.3772 10.8203C22.7601 10.8203 25.8954 13.2281 25.2789 19.8628Z" fill="#D2EFF3"/>
<g opacity="0.3">
<mask id="mask0" mask-type="alpha" maskUnits="userSpaceOnUse" x="11" y="9" width="15" height="24">
<rect x="13.5625" y="21.7988" width="4.61436" height="10.5414" rx="2.30718" fill="#D8B187"/>
<path d="M25.2379 19.9892C25.2379 25.0312 24.3826 28.4622 18.3362 28.1638C13.7218 27.4876 11.0566 24.1958 11.0566 19.1539C11.0566 14.1119 13.9533 9.90527 18.3362 9.90527C22.7191 9.90527 25.8544 12.5904 25.2379 19.9892Z" fill="#EFCC9F"/>
</mask>
<g mask="url(#mask0)">
<ellipse cx="16.1193" cy="21.344" rx="2.28832" ry="1.87523" transform="rotate(5.61429 16.1193 21.344)" fill="#EDB68B"/>
<ellipse cx="26.0788" cy="21.5036" rx="1.48514" ry="1.33575" transform="rotate(-9.97529 26.0788 21.5036)" fill="#EDB68B"/>
</g>
</g>
<path d="M20.6438 15.1559C20.7041 15.5959 18.9172 15.8452 17.2459 16.0744C15.5745 16.3036 13.4444 16.5143 13.3841 16.0744C13.3238 15.6345 15.2174 14.1155 16.8887 13.8864C19.1521 13.576 20.5835 14.716 20.6438 15.1559Z" fill="#685B5A"/>
<path d="M25.6963 16.1507C25.6496 16.5212 24.8212 16.2727 24.4206 16.2222C23.0692 16.0517 22.5468 15.8847 22.5936 15.5142C22.6403 15.1437 23.2572 14.1965 24.6086 14.367C25.96 14.5375 25.7431 15.7801 25.6963 16.1507Z" fill="#685B5A"/>
<path d="M18.4154 17.8213C18.4154 18.3815 17.8983 18.8356 17.4011 18.8356C16.9038 18.8356 16.3867 18.3815 16.3867 17.8213C16.3867 17.261 16.9038 16.8467 17.4011 16.8467C17.9613 16.8467 18.4154 17.261 18.4154 17.8213Z" fill="#2A1200"/>
<path d="M24.4619 17.837C24.4619 18.2125 24.1591 18.5168 23.7856 18.5168C23.4121 18.5168 23.1094 18.2125 23.1094 17.837C23.1094 17.4616 23.4121 17.2041 23.7856 17.2041C24.1591 17.2041 24.4619 17.4616 24.4619 17.837Z" fill="#2A1200"/>
<path d="M22.4102 20.9006C22.5527 21.2555 22.1761 21.6414 21.6521 21.8517C21.1281 22.062 20.4725 21.8629 20.3031 21.4409C20.1336 21.0189 20.9165 19.3639 21.4405 19.1536C21.9645 18.9432 22.2407 20.4786 22.4102 20.9006Z" fill="#B3D6DB"/>
<path d="M20.8371 24.4847C20.135 24.4037 19.5105 24.9576 20.0501 25.4137C20.3507 25.6676 20.7334 25.7865 21.1141 25.744C21.4948 25.7015 21.8422 25.5013 22.0801 25.1873C22.3876 24.7812 21.8962 24.4365 21.3908 24.4973C21.3783 24.4988 21.3658 24.5002 21.3532 24.5016C21.215 24.5166 21.0329 24.5073 20.8371 24.4847Z" fill="#43454D"/>
<path fill-rule="evenodd" clip-rule="evenodd" d="M21.994 25.2913C21.8338 25.1182 21.5748 24.969 21.2645 24.8901C20.8867 24.7941 20.3133 24.7602 19.9386 24.842C19.8285 25.0222 19.838 25.2355 20.0498 25.4145C20.3503 25.6685 20.7331 25.7873 21.1137 25.7449C21.4509 25.7073 21.762 25.5459 21.994 25.2913Z" fill="#D87F79"/>
</svg>
