<svg width="408" height="498" viewBox="0 0 408 498" fill="none" xmlns="http://www.w3.org/2000/svg">
<g opacity="0.05">
<path d="M-81.7261 500H87.7945C168.178 500 233.342 434.836 233.342 354.452H63.8219C-16.562 354.452 -81.7261 419.616 -81.7261 500Z" fill="white"/>
<path d="M-81.7261 154.109V368.151C-1.34216 368.151 63.8219 302.987 63.8219 222.603V8.56152C-16.562 8.56152 -81.7261 73.7256 -81.7261 154.109Z" fill="white"/>
<path d="M397.726 0H228.205C147.822 0 82.6575 65.164 82.6575 145.548H252.178C332.562 145.548 397.726 80.3839 397.726 0Z" fill="white"/>
<path d="M397.726 345.89V131.849C317.342 131.849 252.178 197.013 252.178 277.397V491.438C332.562 491.438 397.726 426.274 397.726 345.89Z" fill="white"/>
</g>
</svg>
