<svg width="43" height="46" viewBox="0 0 43 46" fill="none" xmlns="http://www.w3.org/2000/svg">
<path fill-rule="evenodd" clip-rule="evenodd" d="M21.4917 0C21.4917 0 12.6724 29.3279 36.1315 45.5961C36.1315 45.5961 26.6672 35.0839 30.5852 26.3935C32.2781 22.653 43 17.5903 43 17.5903C43 17.5903 21.2821 24.3459 21.4917 0Z" fill="#84BB29"/>
<path fill-rule="evenodd" clip-rule="evenodd" d="M42.0312 18.0716C42.6278 17.7652 42.9986 17.5879 42.9986 17.5879C42.9986 17.5879 40.5157 18.3618 37.2266 18.4424C39.0968 18.4908 40.7898 18.2973 42.0312 18.0716Z" fill="url(#paint0_linear_569_5765)"/>
<path fill-rule="evenodd" clip-rule="evenodd" d="M21.7013 4.17588C21.5562 2.88604 21.4756 1.49945 21.4917 0C21.4917 0 12.6724 29.3279 36.1315 45.5961C36.1315 45.5961 35.4382 44.8222 34.5031 43.5163C19.299 30.9402 20.3309 12.3825 21.7013 4.17588Z" fill="#699026"/>
<path fill-rule="evenodd" clip-rule="evenodd" d="M19.122 10.0449L16.2843 18.4612L0 18.6547L13.0597 28.3769L8.20666 43.9196L21.4921 34.5037L27.2319 38.5667C19.6702 29.0863 18.6383 17.8646 19.122 10.0449Z" fill="#84BB29"/>
<path fill-rule="evenodd" clip-rule="evenodd" d="M17.5742 14.6561C17.7516 21.2344 19.2671 29.1831 24.1524 36.3901L27.232 38.5667C19.6702 29.0863 18.6383 17.8646 19.122 10.0449L17.5742 14.6561Z" fill="#699026"/>
<path fill-rule="evenodd" clip-rule="evenodd" d="M21.4925 34.5059L8.62623 42.5835L8.20703 43.9218L21.4925 34.5059Z" fill="#699026"/>
<path fill-rule="evenodd" clip-rule="evenodd" d="M32.535 9.90298C32.535 11.3702 31.3419 12.5633 29.8747 12.5633C28.4075 12.5633 27.2305 11.3702 27.2305 9.90298C27.2305 8.43578 28.4075 7.25879 29.8747 7.25879C31.3419 7.25879 32.535 8.43578 32.535 9.90298Z" fill="#84BB29"/>
<defs>
<linearGradient id="paint0_linear_569_5765" x1="36.8169" y1="21.8892" x2="20.3876" y2="41.2679" gradientUnits="userSpaceOnUse">
<stop stop-color="#F79633"/>
<stop offset="1" stop-color="#EF4B43"/>
</linearGradient>
</defs>
</svg>
