<svg width="13" height="16" viewBox="0 0 13 16" fill="none" xmlns="http://www.w3.org/2000/svg">
<path d="M11.5588 8.31491L6.92378 12.9574C6.31614 13.4974 5.52514 13.7849 4.71257 13.761C3.9 13.737 3.12728 13.4036 2.55246 12.8287C1.97764 12.2539 1.64416 11.4812 1.62024 10.6686C1.59632 9.85606 1.88376 9.06505 2.42378 8.45741L8.42378 2.45742C8.782 2.11714 9.2572 1.92741 9.75128 1.92741C10.2454 1.92741 10.7206 2.11714 11.0788 2.45742C11.4278 2.81111 11.6235 3.28802 11.6235 3.78491C11.6235 4.28181 11.4278 4.75872 11.0788 5.11241L5.90378 10.2799C5.85256 10.3351 5.79098 10.3796 5.72256 10.411C5.65414 10.4423 5.58021 10.4599 5.50499 10.4627C5.42978 10.4655 5.35475 10.4534 5.28419 10.4272C5.21363 10.401 5.14893 10.3611 5.09378 10.3099C5.03862 10.2587 4.99409 10.1971 4.96274 10.1287C4.93138 10.0603 4.91381 9.98634 4.91102 9.91113C4.90824 9.83591 4.92029 9.76088 4.9465 9.69033C4.97271 9.61977 5.01256 9.55507 5.06378 9.49991L8.91128 5.65991C9.05251 5.51869 9.13185 5.32714 9.13185 5.12742C9.13185 4.92769 9.05251 4.73614 8.91128 4.59491C8.77005 4.45369 8.5785 4.37435 8.37878 4.37435C8.17905 4.37435 7.98751 4.45369 7.84628 4.59491L3.99878 8.44991C3.80626 8.64094 3.65345 8.86819 3.54918 9.11856C3.4449 9.36892 3.39121 9.63745 3.39121 9.90866C3.39121 10.1799 3.4449 10.4484 3.54918 10.6988C3.65345 10.9491 3.80626 11.1764 3.99878 11.3674C4.39206 11.742 4.91438 11.951 5.45753 11.951C6.00067 11.951 6.523 11.742 6.91628 11.3674L12.0838 6.19242C12.6799 5.55263 13.0045 4.70642 12.9891 3.83206C12.9736 2.95771 12.6194 2.12348 12.0011 1.50512C11.3827 0.886758 10.5485 0.532554 9.67413 0.517127C8.79977 0.5017 7.95356 0.826255 7.31378 1.42241L1.31378 7.42241C0.504677 8.31854 0.0725484 9.4923 0.107427 10.6991C0.142306 11.906 0.641502 13.0528 1.50101 13.9007C2.36051 14.7486 3.51403 15.2322 4.72124 15.2507C5.92845 15.2692 7.09623 14.8211 7.98128 13.9999L12.6238 9.36491C12.6937 9.29499 12.7492 9.21197 12.787 9.1206C12.8249 9.02923 12.8443 8.93131 12.8443 8.83241C12.8443 8.73352 12.8249 8.63559 12.787 8.54423C12.7492 8.45286 12.6937 8.36984 12.6238 8.29991C12.5538 8.22999 12.4708 8.17452 12.3795 8.13667C12.2881 8.09882 12.1902 8.07935 12.0913 8.07935C11.9924 8.07935 11.8945 8.09882 11.8031 8.13667C11.7117 8.17452 11.6287 8.22999 11.5588 8.29991V8.31491Z" fill="#333333"/>
</svg>
