<svg width="44" height="44" viewBox="0 0 44 44" fill="none" xmlns="http://www.w3.org/2000/svg">
<g clip-path="url(#clip0_296_3448)">
<path d="M42.7234 20.2813C42.7235 21.2293 42.5369 22.168 42.1741 23.0439C41.8114 23.9198 41.2797 24.7156 40.6093 25.3859C39.939 26.0563 39.1432 26.588 38.2673 26.9507C37.3914 27.3135 36.4527 27.5001 35.5047 27.5H33.4422C32.3763 27.5014 31.3234 27.266 30.3596 26.8108L26.2234 27.5L27.3423 24.1433C26.6511 23.0515 26.2656 21.7941 26.226 20.5025C26.1865 19.2108 26.4944 17.9323 27.1176 16.8002C27.7408 15.6682 28.6564 14.7242 29.7689 14.0667C30.8813 13.4092 32.1499 13.0624 33.4422 13.0625H35.5047C37.4192 13.0626 39.2553 13.8231 40.609 15.1769C41.9628 16.5306 42.7233 18.3667 42.7234 20.2813Z" fill="#EEDC9A"/>
<path d="M34.4718 23.375C34.2894 23.375 34.1146 23.3026 33.9856 23.1736C33.8567 23.0447 33.7843 22.8698 33.7843 22.6875C33.7828 22.1611 33.8858 21.6396 34.0873 21.1533C34.2887 20.6669 34.5846 20.2254 34.9578 19.8542L35.7044 19.1076C36.031 18.7812 36.2148 18.3386 36.2154 17.8768C36.216 17.4151 36.0334 16.972 35.7076 16.6448C35.3819 16.3175 34.9396 16.1329 34.4779 16.1314C34.0162 16.1299 33.5727 16.3116 33.2448 16.6367L32.9246 16.9737C32.9206 16.9778 32.9165 16.982 32.9124 16.9862C32.8264 17.0726 32.7728 17.1861 32.7608 17.3074C32.7488 17.4288 32.7791 17.5506 32.8465 17.6522C32.8898 17.7172 32.947 17.7717 33.014 17.8119C33.0809 17.8521 33.156 17.877 33.2337 17.8846C33.3114 17.8923 33.3899 17.8827 33.4634 17.8564C33.5369 17.8301 33.6037 17.7878 33.6589 17.7326L33.9856 17.4059C34.1146 17.2769 34.2894 17.2045 34.4718 17.2045C34.6541 17.2045 34.829 17.277 34.9579 17.4059C35.0869 17.5348 35.1593 17.7097 35.1593 17.8921C35.1593 18.0744 35.0868 18.2493 34.9579 18.3782L34.6312 18.7049C34.2749 19.0612 33.7919 19.2616 33.2881 19.2622C32.7842 19.2629 32.3007 19.0637 31.9436 18.7083C31.5864 18.3529 31.3847 17.8704 31.3828 17.3666C31.3809 16.8628 31.5789 16.3788 31.9333 16.0207L32.2547 15.6826C32.2587 15.6784 32.2628 15.6742 32.2669 15.6701C32.8518 15.0858 33.6447 14.7576 34.4715 14.7578C35.2982 14.758 36.0911 15.0865 36.6757 15.6711C37.2603 16.2557 37.5888 17.0486 37.5889 17.8753C37.5891 18.7021 37.261 19.495 36.6766 20.0799L35.9301 20.8264C35.685 21.0702 35.4906 21.3603 35.3583 21.6797C35.226 21.9992 35.1583 22.3417 35.1593 22.6875C35.1593 22.8698 35.0868 23.0447 34.9579 23.1736C34.829 23.3026 34.6541 23.375 34.4718 23.375Z" fill="#E44B4D"/>
<path d="M34.4727 25.4375C34.8524 25.4375 35.1602 25.1297 35.1602 24.75C35.1602 24.3703 34.8524 24.0625 34.4727 24.0625C34.093 24.0625 33.7852 24.3703 33.7852 24.75C33.7852 25.1297 34.093 25.4375 34.4727 25.4375Z" fill="#E44B4D"/>
<path d="M9.72266 30.9375H12.2483V35.0625H9.72266C9.17565 35.0625 8.65104 34.8452 8.26425 34.4584C7.87745 34.0716 7.66016 33.547 7.66016 33C7.66016 32.453 7.87745 31.9284 8.26425 31.5416C8.65104 31.1548 9.17565 30.9375 9.72266 30.9375Z" fill="#7D5E44"/>
<path d="M23.4727 35.0625H20.947V30.9375H23.4727C24.0197 30.9375 24.5443 31.1548 24.9311 31.5416C25.3179 31.9284 25.5352 32.453 25.5352 33C25.5352 33.547 25.3179 34.0716 24.9311 34.4584C24.5443 34.8452 24.0197 35.0625 23.4727 35.0625Z" fill="#7D5E44"/>
<path d="M30.3477 53.4402V53.625H2.84766V53.4402C2.84746 52.8172 2.88563 52.1946 2.96196 51.5762C3.03836 50.958 3.15229 50.345 3.30313 49.7406C3.72948 48.0347 4.62616 46.4828 5.89112 45.2614C7.15607 44.0401 8.7385 43.1984 10.4583 42.8321C10.7976 42.7592 11.1407 42.7056 11.4861 42.6714C11.7946 42.6405 12.1048 42.625 12.4168 42.625H12.4727C13.0194 42.6245 13.5436 42.4072 13.9302 42.0207C14.3169 41.6342 14.5345 41.1101 14.5352 40.5634V39.875H18.6602V40.5634C18.6609 41.1101 18.8784 41.6342 19.2651 42.0207C19.6517 42.4072 20.1759 42.6245 20.7227 42.625H20.7785C21.0905 42.625 21.4007 42.6405 21.7092 42.6714C22.0546 42.7056 22.3977 42.7592 22.737 42.8321C22.9493 42.8768 23.1598 42.9292 23.3687 42.9894C24.9526 43.4437 26.3892 44.3067 27.5342 45.4917C28.6793 46.6767 29.4924 48.142 29.8922 49.7406C30.1947 50.9506 30.3476 52.1931 30.3477 53.4402Z" fill="#7D5E44"/>
<path d="M30.3477 53.4407V53.6255H2.84766V53.4407C2.84746 52.8176 2.88563 52.1951 2.96196 51.5767C3.03836 50.9585 3.15229 50.3455 3.30313 49.7411C3.72948 48.0352 4.62616 46.4833 5.89112 45.2619C7.15607 44.0406 8.7385 43.1988 10.4583 42.8326C10.7976 42.7597 11.1407 42.7061 11.4861 42.6719C11.6725 42.945 11.8809 43.2026 12.1091 43.4419C12.7441 44.1132 13.5214 44.6336 14.384 44.9648C15.2466 45.296 16.1725 45.4296 17.0936 45.3557C18.0146 45.2818 18.9074 45.0024 19.7061 44.5379C20.5049 44.0734 21.1894 43.4358 21.7092 42.6719C21.8991 42.6908 22.0873 42.7157 22.2756 42.7458C22.4302 42.7707 22.5841 42.7996 22.737 42.8326C22.9493 42.8773 23.1598 42.9297 23.3687 42.9898C24.9526 43.4442 26.3892 44.3072 27.5342 45.4922C28.6793 46.6772 29.4924 48.1425 29.8922 49.7411C30.1947 50.951 30.3476 52.1935 30.3477 53.4407Z" fill="#C4D4E0"/>
<path d="M21.7266 44.4955L19.0437 48.0731C19.1494 48.2818 19.2277 48.5033 19.2766 48.7322C19.3564 49.1041 19.3583 49.4885 19.2823 49.8612C19.2063 50.2339 19.0539 50.5869 18.8348 50.8978L16.9064 53.6255H5.01953L11.3377 44.5995L12.1094 43.4419C12.7443 44.1132 13.5217 44.6336 14.3843 44.9648C15.2469 45.296 16.1728 45.4296 17.0938 45.3557C18.0148 45.2818 18.9076 45.0024 19.7064 44.5379C20.5052 44.0734 21.1896 43.4358 21.7095 42.6719C21.8994 42.6908 22.0876 42.7157 22.2758 42.7458C22.2993 43.3748 22.1054 43.9927 21.7266 44.4955Z" fill="#A6B2BC"/>
<path d="M21.7075 42.6718C21.1877 43.4357 20.5032 44.0733 19.7044 44.5378C18.9056 45.0022 18.0129 45.2817 17.0918 45.3556C16.1708 45.4294 15.2449 45.2959 14.3823 44.9647C13.5197 44.6335 12.7423 44.1131 12.1074 43.4418C11.8792 43.2024 11.6708 42.9449 11.4844 42.6718C11.658 42.6546 11.8316 42.6417 12.006 42.6348C12.1418 42.6279 12.2784 42.6254 12.4151 42.6254H12.4709C12.9372 42.626 13.3897 42.4678 13.754 42.1768C14.5204 42.9061 15.5379 43.3128 16.5959 43.3128C17.6539 43.3128 18.6715 42.9061 19.4379 42.1768C19.8021 42.4678 20.2547 42.626 20.7209 42.6254H20.7768C21.0888 42.6254 21.399 42.6408 21.7075 42.6718Z" fill="#A6B2BC"/>
<path d="M30.3477 53.4402V53.6249H20.7227C20.7226 52.2542 20.8783 50.8879 21.1867 49.5523L21.7977 46.9046L22.737 42.832C22.9493 42.8767 23.1598 42.9291 23.3687 42.9893C24.9526 43.4436 26.3892 44.3066 27.5342 45.4916C28.6793 46.6766 29.4924 48.142 29.8922 49.7406C30.1947 50.9505 30.3476 52.193 30.3477 53.4402Z" fill="#396795"/>
<path d="M12.4727 53.6249H2.84766V53.4402C2.84746 52.8171 2.88563 52.1946 2.96196 51.5762C3.03836 50.9579 3.15229 50.3449 3.30313 49.7406C3.72943 48.0346 4.62609 46.4827 5.89106 45.2613C7.15602 44.0399 8.73848 43.1983 10.4583 42.832L10.9825 45.106L11.3976 46.9046L12.0086 49.5523C12.317 50.8879 12.4727 52.2542 12.4727 53.6249Z" fill="#396795"/>
<path d="M22.7852 30.25V34.375C22.7852 36.016 22.1333 37.5898 20.9729 38.7502C19.8125 39.9106 18.2387 40.5625 16.5977 40.5625C14.9566 40.5625 13.3828 39.9106 12.2224 38.7502C11.0621 37.5898 10.4102 36.016 10.4102 34.375V30.25L18.6602 26.8125L22.7852 30.25Z" fill="#7D5E44"/>
<path d="M19.9218 39.5951C18.9176 40.2341 17.7505 40.57 16.5603 40.5627C15.3701 40.5553 14.2072 40.2051 13.2109 39.5539C13.559 39.354 13.9482 39.2364 14.3487 39.2099C14.7491 39.1833 15.1504 39.2487 15.5218 39.4009C15.9957 38.8654 16.6595 38.5356 17.3726 38.4815C18.0856 38.4274 18.7916 38.6533 19.3408 39.1113L19.9218 39.5951Z" fill="#887058"/>
<path d="M13.8477 33H12.4727C12.2903 33 12.1155 32.9276 11.9865 32.7986C11.8576 32.6697 11.7852 32.4948 11.7852 32.3125C11.7852 32.1302 11.8576 31.9553 11.9865 31.8264C12.1155 31.6974 12.2903 31.625 12.4727 31.625H13.8477C14.03 31.625 14.2049 31.6974 14.3338 31.8264C14.4627 31.9553 14.5352 32.1302 14.5352 32.3125C14.5352 32.4948 14.4627 32.6697 14.3338 32.7986C14.2049 32.9276 14.03 33 13.8477 33Z" fill="#887058"/>
<path d="M20.7227 33H19.3477C19.1653 33 18.9905 32.9276 18.8615 32.7986C18.7326 32.6697 18.6602 32.4948 18.6602 32.3125C18.6602 32.1302 18.7326 31.9553 18.8615 31.8264C18.9905 31.6974 19.1653 31.625 19.3477 31.625H20.7227C20.905 31.625 21.0799 31.6974 21.2088 31.8264C21.3377 31.9553 21.4102 32.1302 21.4102 32.3125C21.4102 32.4948 21.3377 32.6697 21.2088 32.7986C21.0799 32.9276 20.905 33 20.7227 33Z" fill="#887058"/>
<path d="M17.2851 35.7502C17.1408 35.7501 17.0002 35.7047 16.8832 35.6203C16.7661 35.5359 16.6786 35.4168 16.6329 35.28L15.9454 33.2175C15.9169 33.1318 15.9055 33.0414 15.9119 32.9513C15.9183 32.8612 15.9423 32.7733 15.9827 32.6926C16.0231 32.6118 16.079 32.5398 16.1472 32.4807C16.2154 32.4215 16.2946 32.3763 16.3802 32.3478C16.4659 32.3192 16.5563 32.3078 16.6464 32.3142C16.7364 32.3206 16.8243 32.3447 16.9051 32.3851C16.9858 32.4254 17.0579 32.4813 17.117 32.5495C17.1762 32.6177 17.2213 32.6969 17.2499 32.7826L17.9374 34.8451C17.9718 34.9484 17.9811 35.0585 17.9647 35.1662C17.9482 35.2739 17.9064 35.3761 17.8427 35.4645C17.7791 35.5528 17.6953 35.6248 17.5983 35.6745C17.5014 35.7242 17.394 35.7501 17.2851 35.7502Z" fill="#887058"/>
<path d="M13.1602 34.375C13.5399 34.375 13.8477 34.0672 13.8477 33.6875C13.8477 33.3078 13.5399 33 13.1602 33C12.7805 33 12.4727 33.3078 12.4727 33.6875C12.4727 34.0672 12.7805 34.375 13.1602 34.375Z" fill="#AD7D4D"/>
<path d="M20.0352 34.375C20.4149 34.375 20.7227 34.0672 20.7227 33.6875C20.7227 33.3078 20.4149 33 20.0352 33C19.6555 33 19.3477 33.3078 19.3477 33.6875C19.3477 34.0672 19.6555 34.375 20.0352 34.375Z" fill="#AD7D4D"/>
<path d="M24.1602 28.472V30.9375H22.5488C21.8197 30.9374 21.1205 30.6478 20.6049 30.1323L18.6602 28.1875C16.8995 29.9482 14.5115 30.9374 12.0215 30.9375H11.181C10.2472 30.9375 9.3517 30.5665 8.69141 29.9062C8.03112 29.246 7.66017 28.3504 7.66016 27.4166V26.8125C7.65984 26.6996 7.68191 26.5878 7.72508 26.4836C7.76826 26.3793 7.83168 26.2846 7.91168 26.205C7.99168 26.1254 8.08667 26.0625 8.19115 26.0198C8.29564 25.9772 8.40754 25.9557 8.52039 25.9566C8.63184 25.9566 8.74215 25.9789 8.84486 26.0221C8.94757 26.0654 9.04061 26.1287 9.11852 26.2084C9.2788 26.3685 9.4961 26.4584 9.72266 26.4584C9.94923 26.4584 10.1665 26.3685 10.3268 26.2084L12.1461 24.3891C12.6855 23.8496 13.3259 23.4217 14.0308 23.1297C14.7356 22.8378 15.491 22.6875 16.2539 22.6875C17.0168 22.6875 17.7722 22.8378 18.4771 23.1297C19.1819 23.4217 19.8223 23.8496 20.3617 24.3891L20.8026 24.8299C20.9635 24.9911 21.054 25.2097 21.054 25.4375C21.054 25.6653 20.9635 25.8838 20.8026 26.0451L20.7227 26.125H21.8132C22.4356 26.1251 23.0325 26.3724 23.4727 26.8125C23.9128 27.2526 24.1601 27.8495 24.1602 28.472Z" fill="#AD7D4D"/>
<path d="M17.2852 38.5H15.9102C15.7278 38.5 15.553 38.4276 15.424 38.2986C15.2951 38.1697 15.2227 37.9948 15.2227 37.8125C15.2227 37.6302 15.2951 37.4553 15.424 37.3264C15.553 37.1974 15.7278 37.125 15.9102 37.125H17.2852C17.4675 37.125 17.6424 37.1974 17.7713 37.3264C17.9002 37.4553 17.9727 37.6302 17.9727 37.8125C17.9727 37.9948 17.9002 38.1697 17.7713 38.2986C17.6424 38.4276 17.4675 38.5 17.2852 38.5Z" fill="#887058"/>
<path d="M21.7093 42.6718C21.1895 43.4357 20.505 44.0733 19.7062 44.5378C18.9074 45.0022 18.0147 45.2817 17.0936 45.3556C16.1726 45.4294 15.2467 45.2959 14.3841 44.9647C13.5215 44.6335 12.7441 44.1131 12.1092 43.4418L12.2613 43.214L12.1642 43.0198C12.102 42.8958 12.0497 42.767 12.0078 42.6348C12.1436 42.6279 12.2802 42.6254 12.4169 42.6254H12.4727C12.939 42.626 13.3915 42.4678 13.7558 42.1768C14.5222 42.9061 15.5397 43.3128 16.5977 43.3128C17.6557 43.3128 18.6732 42.9061 19.4397 42.1768C19.8039 42.4678 20.2565 42.626 20.7227 42.6254H20.7786C21.0905 42.6254 21.4008 42.6408 21.7093 42.6718Z" fill="#808393"/>
<path d="M24.8468 43.5522V48.1249L21.7969 46.9046L22.7362 42.832C22.9484 42.8767 23.159 42.9291 23.3678 42.9893C23.8758 43.1348 24.3706 43.3231 24.8468 43.5522Z" fill="#26507A"/>
<path d="M11.3976 46.9046L9.0721 47.8353L8.34766 48.1249V43.5522C9.01999 43.2289 9.72856 42.9871 10.4583 42.832L10.9825 45.106L11.3976 46.9046Z" fill="#26507A"/>
<path d="M13.3254 41.442C13.2196 41.7594 13.2442 42.1058 13.3938 42.4051L13.8477 43.3127L12.4727 45.3752L17.2852 48.1252L20.6264 43.6703C20.8379 43.3883 20.933 43.0358 20.8921 42.6857C20.8512 42.3356 20.6774 42.0146 20.4066 41.789L18.4607 40.1673C18.3125 40.0438 18.1399 39.9529 17.9543 39.9004C17.7686 39.848 17.574 39.8352 17.3831 39.8629C17.1921 39.8906 17.0092 39.9581 16.8461 40.0612C16.683 40.1642 16.5434 40.3004 16.4364 40.4609L15.9102 41.2502L15.2218 40.7913C15.0604 40.6838 14.8764 40.6148 14.6841 40.5899C14.4917 40.565 14.2962 40.5848 14.1127 40.6478C13.9293 40.7107 13.7628 40.8151 13.6262 40.9529C13.4897 41.0906 13.3867 41.258 13.3254 41.442Z" fill="#7D5E44"/>
<path d="M24.1602 28.472V30.9375H22.5488C21.8197 30.9374 21.1205 30.6478 20.6049 30.1323L18.6602 28.1875L20.7227 26.125H21.8132C22.4356 26.1251 23.0325 26.3724 23.4727 26.8125C23.9128 27.2526 24.1601 27.8495 24.1602 28.472Z" fill="#966342"/>
</g>
<defs>
<clipPath id="clip0_296_3448">
<rect width="44" height="44" fill="white"/>
</clipPath>
</defs>
</svg>
