<svg width="75" height="75" viewBox="0 0 75 75" fill="none" xmlns="http://www.w3.org/2000/svg">
<rect width="75" height="75" rx="5" fill="#C4C4C4" fill-opacity="0.22"/>
<g clip-path="url(#clip0_159_496)">
<path d="M57.9474 58.617V50.0091C57.9474 49.0664 57.4873 48.183 56.7151 47.642L51.284 43.8398C50.92 43.5848 50.4858 43.4482 50.041 43.4482H45.668L45.7402 55.8072C45.767 57.0952 46.6085 58.2234 47.835 58.6171H57.9474V58.617Z" fill="#FEC9A3"/>
<path d="M53.6135 58.6174H48.5573C46.9617 58.6174 45.668 57.3237 45.668 55.7281V52.8389H50.7242L53.6135 58.6174Z" fill="#FABD91"/>
<path d="M34.8312 21.7789C34.3336 21.7796 33.8417 21.8837 33.3866 22.0837V16.7227H20.3847C17.991 16.7227 16.0508 18.6629 16.0508 21.0566V34.0584H21.4119C20.6101 32.2324 21.4401 30.1016 23.2668 29.2998C25.0929 28.498 27.2237 29.328 28.0255 31.1547C28.4321 32.08 28.4321 33.1339 28.0255 34.0592H33.3866V28.6981C35.2126 29.4999 37.3434 28.6699 38.1452 26.8432C38.947 25.0164 38.117 22.8863 36.2903 22.0845C35.8309 21.8815 35.334 21.7782 34.8312 21.7789Z" fill="#88B337"/>
<path d="M50.7233 21.0566C50.7233 18.6629 48.7831 16.7227 46.3893 16.7227H33.3875V22.0837C35.2136 21.2819 37.3444 22.1119 38.1462 23.9387C38.9479 25.7648 38.118 27.8956 36.2912 28.6974C35.3659 29.104 34.3121 29.104 33.3867 28.6974V34.0584H38.7478C37.946 35.8845 38.776 38.0153 40.6027 38.8171C42.4288 39.6189 44.5596 38.7889 45.3614 36.9622C45.7681 36.0369 45.7681 34.983 45.3614 34.0577H50.7225V21.0566H50.7233Z" fill="#E8594A"/>
<path d="M50.7225 21.4688C46.5937 27.2127 39.14 30.4754 33.3867 32.2314V34.0582H38.7478C37.946 35.8842 38.776 38.015 40.6027 38.8168C42.4288 39.6186 44.5596 38.7886 45.3614 36.9619C45.7681 36.0366 45.7681 34.9827 45.3614 34.0574H50.7225V21.4688Z" fill="#D65245"/>
<path d="M31.942 39.837C32.4396 39.8377 32.9315 39.9418 33.3866 40.1418V34.0584H28.0256C28.8274 32.2324 27.9974 30.1016 26.1706 29.2998C24.3439 28.498 22.2137 29.328 21.412 31.1547C21.0053 32.08 21.0053 33.1339 21.412 34.0592H16.0508V47.061C16.0508 49.4548 17.991 51.395 20.3847 51.395H33.3866V46.7562C31.5605 47.558 29.4297 46.728 28.6279 44.9013C27.8261 43.0752 28.6561 40.9444 30.4828 40.1426C30.9423 39.9395 31.4399 39.8362 31.942 39.837Z" fill="#FDB62F"/>
<path d="M16.0508 47.0602C16.0508 49.4539 17.991 51.3941 20.3847 51.3941H33.3866V46.7554C31.5692 47.5557 29.447 46.7315 28.6466 44.9142C28.461 44.4923 28.3577 44.0379 28.3433 43.5771C24.4709 45.3042 20.29 46.2339 16.0508 46.3111C16.0508 46.3111 16.0508 47.0602 16.0508 47.0602Z" fill="#FFA719"/>
<path d="M52.6122 49.1545L48.0421 36.9473L43.0227 38.8376C44.4219 40.2628 44.4002 42.5525 42.975 43.9509C41.5499 45.3494 39.2602 45.3284 37.8617 43.9032C37.1495 43.1773 36.7753 42.1855 36.8317 41.1699L31.813 43.0603L33.9511 48.7731C33.4549 48.7449 32.9579 48.8208 32.4919 48.9956C30.6269 49.7194 29.7023 51.8177 30.4261 53.6828C31.1376 55.5153 33.1811 56.4464 35.0309 55.7789C35.4968 55.6035 35.9216 55.3318 36.2769 54.9829L37.9065 59.3392L50.0791 54.7547C52.3233 53.9053 53.4567 51.4002 52.6122 49.1545Z" fill="#4398D1"/>
<path d="M50.2566 42.8604C45.2725 50.3148 35.9293 52.918 30.457 53.8144C31.2249 55.6411 33.3283 56.4992 35.155 55.7315C35.5733 55.5559 35.9547 55.3017 36.2782 54.9839L37.9078 59.3402L50.0804 54.7556C52.3231 53.9062 53.4558 51.4026 52.6135 49.1576L50.2566 42.8604Z" fill="#3E8FC9"/>
<path d="M34.8312 21.7784C34.3336 21.7791 33.8417 21.8832 33.3866 22.0832V21.0352C27.9779 26.0142 20.6499 28.7641 16.0508 30.104V34.058H21.4119C20.6101 32.2319 21.4401 30.1011 23.2668 29.2994C25.0929 28.4976 27.2237 29.3275 28.0255 31.1543C28.4321 32.0796 28.4321 33.1335 28.0255 34.0588H33.3866V28.6977C35.2126 29.4995 37.3434 28.6695 38.1452 26.8428C38.947 25.016 38.117 22.8859 36.2903 22.0841C35.8309 21.881 35.334 21.7777 34.8312 21.7784Z" fill="#80A834"/>
<path d="M49.2911 49.2404C48.5998 48.5354 47.4679 48.5239 46.7629 49.2152C46.0579 49.9064 46.0464 51.0383 46.7376 51.7433C46.7463 51.752 46.7542 51.7607 46.7629 51.7686L49.278 54.2837C49.278 56.6775 51.2182 58.6177 53.612 58.6177H57.9459V57.8954L49.2911 49.2404Z" fill="#FEC9A3"/>
<path d="M31.9455 39.0544C29.5517 39.0538 27.6109 40.9932 27.6101 43.3869C27.6094 45.1111 28.6314 46.6721 30.2119 47.3612L30.7897 46.0379C29.3263 45.4016 28.656 43.6991 29.2931 42.2357C29.7525 41.1796 30.7948 40.4978 31.9454 40.4992C32.3434 40.4992 32.7371 40.5823 33.1011 40.7434C33.4666 40.903 33.8928 40.7361 34.0524 40.3699C34.0921 40.2789 34.1124 40.1806 34.1124 40.0816V34.7805H37.7854C37.7443 35.0189 37.7241 35.2609 37.7241 35.5028C37.7284 37.5608 39.176 39.3341 41.1912 39.7501L41.4801 38.3351C40.1366 38.057 39.1716 36.8753 39.1687 35.5028C39.1687 35.1049 39.2518 34.7112 39.4128 34.3472C39.5725 33.9817 39.4056 33.5555 39.0393 33.3958C38.949 33.3561 38.8508 33.3359 38.7511 33.3359H34.1123V29.6628C34.3507 29.704 34.5927 29.7242 34.8346 29.7242C37.2284 29.7242 39.1686 27.784 39.1686 25.3902C39.1686 22.9965 37.2284 21.0563 34.8346 21.0563C34.5926 21.0563 34.3506 21.0765 34.1123 21.1176V17.4447H46.3918C48.3855 17.4468 50.0013 19.0627 50.0034 21.0563V33.3358H45.3646C44.9659 33.3358 44.6423 33.6594 44.643 34.0588C44.643 34.1578 44.6632 34.2561 44.703 34.3471C44.864 34.7111 44.9472 35.1048 44.9472 35.5028H46.3918C46.3918 35.2608 46.3716 35.0188 46.3305 34.7805H50.7258C51.1245 34.7805 51.4481 34.4568 51.4481 34.0582V21.0563C51.4447 18.2652 49.1831 16.0036 46.392 16H20.3883C17.5972 16.0036 15.3356 18.2652 15.332 21.0563V47C15.3356 49.791 17.5972 52.0526 20.3883 52.0563H28.3338V50.6116H20.3883C18.3946 50.6094 16.7789 48.9935 16.7767 47V34.7805H21.4155C21.8438 34.7494 22.1653 34.3766 22.1342 33.9483C22.1284 33.866 22.1089 33.7851 22.0771 33.7085C21.435 32.248 22.0988 30.5433 23.5601 29.9011C25.0206 29.259 26.7253 29.9228 27.3674 31.3841C27.6932 32.1252 27.6932 32.9681 27.3674 33.7093C27.189 34.0827 27.3472 34.5298 27.7199 34.7083C27.8167 34.7545 27.9214 34.7791 28.029 34.7812H32.6678V39.1152C32.4294 39.0739 32.1875 39.0537 31.9455 39.0544ZM20.3883 17.4447H32.6678V22.0835C32.6678 22.4822 32.9914 22.8058 33.3909 22.8051C33.4899 22.8051 33.5881 22.7849 33.6791 22.7451C34.0431 22.584 34.4368 22.5009 34.8348 22.5009C36.4304 22.5009 37.7241 23.7946 37.7241 25.3902C37.7241 26.9858 36.4304 28.2795 34.8348 28.2795C34.4368 28.2795 34.0431 28.1964 33.6791 28.0354C33.3136 27.8757 32.8875 28.0426 32.7278 28.4088C32.6881 28.4999 32.6678 28.5981 32.6678 28.6971V33.2759H28.9999C29.0359 33.057 29.0548 32.8353 29.0562 32.6135C29.0562 32.6005 29.0562 32.5889 29.0562 32.5759C29.0562 32.5629 29.0562 32.5607 29.0562 32.5535C29.0562 30.1597 27.116 28.2195 24.7223 28.2195C22.3285 28.2195 20.3883 30.1597 20.3883 32.5535C20.3883 32.5607 20.3883 32.5687 20.3883 32.5759C20.3883 32.5831 20.3883 32.6005 20.3883 32.6135C20.3898 32.8352 20.4085 33.057 20.4447 33.2759H16.7767V21.0563C16.7796 19.0626 18.3947 17.4468 20.3883 17.4447Z" fill="black"/>
<path d="M57.1238 47.0475L51.0512 42.866L48.7188 36.6345C48.5794 36.2604 48.1641 36.0704 47.7899 36.2098C47.7762 36.2149 47.7632 36.22 47.7502 36.2257L43.0551 38.3024C42.7034 38.4577 42.535 38.8622 42.6723 39.2212C42.7503 39.4234 42.8233 39.5766 42.9005 39.7356C42.9778 39.8945 43.0494 40.0433 43.1368 40.278C43.6973 41.7761 42.9425 43.4461 41.4473 44.0146C39.9527 44.5737 38.2878 43.8152 37.7288 42.3208C37.5886 41.9459 37.5279 41.5457 37.5504 41.1463C37.5713 40.7476 37.2651 40.4081 36.8671 40.3871C36.7674 40.3821 36.6677 40.3973 36.5738 40.4327L31.5551 42.323C31.1824 42.4632 30.9931 42.8792 31.1332 43.2527L32.9347 48.0648C32.6956 48.1081 32.4616 48.1732 32.2341 48.2584C29.9862 49.0963 28.8435 51.597 29.6806 53.8449C30.5185 56.0928 33.0192 57.2355 35.2671 56.3984C35.4983 56.3124 35.7221 56.2062 35.936 56.0819L37.2275 59.5318C37.3677 59.9053 37.7837 60.0945 38.1572 59.955C38.1579 59.955 38.1579 59.955 38.1586 59.9543L45.3154 57.2579C45.7647 58.2243 46.5926 58.9626 47.6031 59.3006L48.0596 57.9282C47.4644 57.7274 46.9696 57.3048 46.6785 56.748L48.8563 55.9281C49.5714 57.9405 51.4776 59.2833 53.6128 59.2804V57.8357C51.6236 57.8235 50.0134 56.2134 50.0012 54.2242C50.0012 54.0328 49.9254 53.8485 49.7896 53.7134L47.2745 51.1983C46.9018 50.822 46.8591 50.2297 47.1755 49.8049C47.3596 49.5565 47.6436 49.4019 47.952 49.3817C48.2612 49.3557 48.5652 49.4691 48.7812 49.6916L53.8245 54.7349L54.8458 53.7135L53.3535 52.2212C53.7212 51.1218 53.6988 49.9293 53.2893 48.8443L51.9356 45.2291L56.3006 48.2346C56.8792 48.6406 57.2237 49.3029 57.2244 50.0101V59.3403H58.6691V50.0097C58.6681 48.8295 58.0909 47.7236 57.1238 47.0475ZM52.1469 51.0138L49.8022 48.6699C48.8343 47.6774 47.2452 47.6572 46.2527 48.6251C45.2602 49.593 45.24 51.1822 46.2079 52.1747C46.2223 52.1899 46.2376 52.205 46.2527 52.2194L48.5374 54.5041L38.3295 58.349L36.9528 54.6703C36.8668 54.442 36.6717 54.2715 36.4334 54.2188C36.3821 54.2073 36.3295 54.2015 36.2767 54.2015C36.0875 54.2015 35.9061 54.2751 35.771 54.4074C34.611 55.5032 32.7828 55.4512 31.6863 54.2911C30.5905 53.131 30.6425 51.3028 31.8026 50.2064C32.0756 49.9485 32.3956 49.7463 32.7459 49.6112C32.9756 49.5259 33.2161 49.4718 33.4603 49.4493C33.6105 49.4313 33.7622 49.4262 33.9132 49.4341C34.3119 49.4551 34.6514 49.1488 34.6723 48.7508C34.6774 48.6518 34.6622 48.5529 34.6276 48.4598L32.7408 43.4223L36.1805 42.1272C36.632 44.4776 38.9037 46.0176 41.2542 45.5662C41.4947 45.52 41.7302 45.4535 41.9592 45.3676C44.1991 44.5181 45.331 42.0182 44.4923 39.7739C44.4259 39.5962 44.3659 39.4553 44.3082 39.3297L47.6308 37.8583L51.9359 49.3497C52.1361 49.8805 52.2084 50.4504 52.1469 51.0138Z" fill="black"/>
</g>
<defs>
<clipPath id="clip0_159_496">
<rect width="44" height="44" fill="white" transform="translate(15 16)"/>
</clipPath>
</defs>
</svg>
