<svg width="75" height="75" viewBox="0 0 75 75" fill="none" xmlns="http://www.w3.org/2000/svg">
<rect width="75" height="75" rx="5" fill="#C4C4C4" fill-opacity="0.22"/>
<path d="M39.926 33.8301H34.7148V37.7316C34.7148 38.4812 35.3225 39.0888 36.072 39.0888H38.5688C39.3184 39.0888 39.926 38.4812 39.926 37.7316V33.8301Z" fill="#A59CA6"/>
<path d="M39.5839 38.2833H37.0871C36.3376 38.2833 35.7299 37.6757 35.7299 36.9261V36.5879C35.7299 36.2974 35.9655 36.0618 36.256 36.0618H39.926V33.8301H34.7148V37.7316C34.7148 38.4812 35.3225 39.0888 36.072 39.0888H38.5688C39.1303 39.0888 39.612 38.7478 39.8185 38.2617C39.7422 38.2751 39.664 38.2833 39.5839 38.2833Z" fill="#8F8390"/>
<path d="M50.2555 44.8875L54.4006 41.3937C55.2532 40.6751 55.3586 39.4051 54.636 38.5571C53.9135 37.7092 52.6366 37.6043 51.784 38.3229L43.1683 45.5849L39.9258 48.3944L44.4645 50.1789L50.2555 44.8875Z" fill="#FFE0D1"/>
<path d="M41.3724 48.8142L44.6149 46.0046L53.2306 38.7427C53.5575 38.4671 53.9477 38.3142 54.3442 38.2763C53.6039 37.6961 52.5307 37.6931 51.784 38.3226L43.1683 45.5846L39.9258 48.3942L44.4645 50.1786L44.5783 50.0746L41.3724 48.8142Z" fill="#FFD1C2"/>
<path d="M43.3537 45.4861L49.8936 40.0167C50.6138 39.2822 50.6659 38.1141 49.9822 37.3179C49.2539 36.4699 47.967 36.3651 47.1077 37.0837L41.2803 41.9572L36.9336 45.3243L39.5244 48.6148L43.3537 45.4861Z" fill="#FFE0D1"/>
<path d="M38.4026 46.001L42.7492 42.6338L48.5767 37.7603C48.9758 37.4265 49.4688 37.2717 49.9537 37.2852C49.2207 36.4676 47.9558 36.3743 47.1077 37.0834L41.2803 41.9569L36.9336 45.3241L39.5244 48.6145L40.094 48.1491L38.4026 46.001Z" fill="#FFD1C2"/>
<path d="M46.166 21.8447C46.166 16.9599 42.2061 13 37.3212 13C32.4364 13 28.4766 16.9599 28.4766 21.8447C28.4766 23.7397 29.0729 25.4954 30.0876 26.9348L34.3434 33.5604V34.422C34.3434 34.9644 34.7832 35.4041 35.3256 35.4041H39.3167C39.8591 35.4041 40.2988 34.9644 40.2988 34.422V33.5604L44.5547 26.9348C45.5697 25.4954 46.166 23.7397 46.166 21.8447Z" fill="#FBE88C"/>
<path d="M33.8175 28.0635C32.7565 26.5075 32.133 24.6096 32.133 22.561C32.133 18.0037 35.2163 14.1915 39.3442 13.2327C38.6943 13.0806 38.0177 13 37.3212 13C32.4364 13 28.4766 16.9599 28.4766 21.8447C28.4766 23.7397 29.0729 25.4954 30.0876 26.9348L34.3434 33.5604V34.422C34.3434 34.9644 34.7832 35.4041 35.3256 35.4041H37.8533L33.8175 28.0635Z" fill="#FBE372"/>
<path d="M37.9035 35.4042H39.234L39.6969 27.5498H40.4545C41.5386 27.5498 42.4206 26.6678 42.4206 25.5838V25.5031C42.4206 24.4191 41.5386 23.5371 40.4545 23.5371C39.4152 23.5371 38.5531 24.3499 38.4919 25.3875L38.4428 26.2197H36.1106L36.0615 25.3875C36.0004 24.3499 35.1383 23.5371 34.0989 23.5371C33.0148 23.5371 32.1328 24.4191 32.1328 25.5031V25.5838C32.1328 26.6678 33.0148 27.5498 34.0989 27.5498H34.8566L35.3194 35.4039C35.3215 35.4039 35.3235 35.4042 35.3256 35.4042H36.6499C36.6499 35.3912 36.189 27.5498 36.189 27.5498H38.3645C38.3643 27.5497 37.9035 35.3912 37.9035 35.4042ZM39.8195 25.4657C39.8394 25.1301 40.1182 24.8672 40.4543 24.8672C40.805 24.8672 41.0903 25.1525 41.0903 25.5031V25.5838C41.0903 25.9345 40.805 26.2196 40.4543 26.2196H39.7751L39.8195 25.4657ZM34.0988 26.2196C33.7482 26.2196 33.4629 25.9344 33.4629 25.5838V25.5031C33.4629 25.1525 33.7482 24.8672 34.0988 24.8672C34.435 24.8672 34.7139 25.1301 34.7336 25.4657L34.7781 26.2196H34.0988Z" fill="#F9DE58"/>
<path d="M42.352 45.5661L42.5133 45.584H48.6829C49.1538 45.584 49.6087 45.417 49.9672 45.1132L56.5134 39.5654C56.8918 39.2455 57.3532 39.0889 57.8128 39.0889C58.3837 39.0889 58.9508 39.3304 59.349 39.7994C60.0681 40.6478 59.9634 41.9179 59.115 42.6361L48.782 51.3941C47.7147 52.2981 46.4049 52.869 45.0159 53.0361L33.4769 54.4242L28.9984 59.7864C28.8437 59.9715 28.5924 60.0446 28.3626 59.9711L15.5846 55.8838C15.1897 55.7576 15.043 55.2756 15.3004 54.9507L20.2327 48.7255L20.5998 47.9507C22.3993 44.1563 26.224 41.7377 30.4232 41.7377H40.1966C40.8931 41.7377 41.5225 42.0199 41.9792 42.4756C42.435 42.9324 42.7171 43.5618 42.7171 44.2582C42.7171 44.7376 42.5831 45.1849 42.352 45.5661Z" fill="#FFE0D1"/>
<path d="M57.8111 39.0898C57.3516 39.0898 56.8901 39.2465 56.5117 39.5664L49.9656 45.1141C49.607 45.418 49.1521 45.585 48.6813 45.585H42.5117L42.3503 45.5671C42.3977 45.4889 42.4398 45.4074 42.4787 45.3241H29.0938V45.8081C29.0938 47.1259 30.1621 48.1942 31.4799 48.1942H40.1262C40.15 48.1947 40.1736 48.1949 40.1973 48.1949C41.2897 48.1949 42.3329 47.7288 43.0706 46.9425C43.2355 46.7666 43.4662 46.6673 43.7073 46.6673H49.3322C49.8276 46.6673 50.3062 46.4862 50.6835 46.1567L57.5711 40.1412C57.9692 39.7943 58.4547 39.6244 58.9382 39.6244C59.0247 39.6244 59.1108 39.6305 59.1965 39.6412C58.8126 39.2771 58.3134 39.0898 57.8111 39.0898Z" fill="#FFD1C2"/>
<path d="M42.7188 44.2588C42.7188 44.7382 42.5848 45.1854 42.3536 45.5667C41.9016 46.3093 41.0768 46.7991 40.1436 46.7783H27.8251L27.7383 42.0742C28.6046 41.8544 29.5057 41.7383 30.4249 41.7383H40.1983C40.8947 41.7383 41.5241 42.0204 41.9809 42.4762C42.4366 42.9329 42.7188 43.5624 42.7188 44.2588Z" fill="#FFE0D1"/>
<path d="M51.9542 23.3911H50.2859C49.8949 23.3911 49.5781 23.0743 49.5781 22.6833C49.5781 22.2924 49.8949 21.9756 50.2859 21.9756H51.9542C52.3452 21.9756 52.662 22.2924 52.662 22.6833C52.662 23.0743 52.3452 23.3911 51.9542 23.3911Z" fill="#FBE88C"/>
<path d="M49.165 18.9411C48.8775 18.9411 48.6071 18.7646 48.5013 18.4791C48.3655 18.1126 48.5525 17.7054 48.919 17.5695L50.4833 16.9896C50.8498 16.8538 51.2569 17.0408 51.3929 17.4073C51.5287 17.7738 51.3417 18.181 50.9752 18.3169L49.4109 18.8968C49.3298 18.9269 49.2467 18.9411 49.165 18.9411Z" fill="#FBE88C"/>
<path d="M50.7291 28.4204C50.6475 28.4204 50.5643 28.4061 50.4833 28.376L48.919 27.7963C48.5525 27.6605 48.3655 27.2532 48.5013 26.8867C48.637 26.5202 49.0444 26.3334 49.4109 26.469L50.9752 27.0488C51.3417 27.1846 51.5287 27.5919 51.3929 27.9584C51.2871 28.2438 51.0166 28.4204 50.7291 28.4204Z" fill="#FBE88C"/>
<path d="M24.3566 23.3911H22.6882C22.2973 23.3911 21.9805 23.0743 21.9805 22.6833C21.9805 22.2924 22.2973 21.9756 22.6882 21.9756H24.3566C24.7475 21.9756 25.0643 22.2924 25.0643 22.6833C25.0643 23.0743 24.7475 23.3911 24.3566 23.3911Z" fill="#FBE88C"/>
<path d="M25.4752 18.9419C25.3935 18.9419 25.3104 18.9277 25.2294 18.8976L23.6651 18.3177C23.2986 18.1819 23.1116 17.7746 23.2474 17.4081C23.3833 17.0416 23.7907 16.855 24.157 16.9905L25.7213 17.5703C26.0878 17.7061 26.2747 18.1134 26.139 18.4799C26.0331 18.7654 25.7627 18.9419 25.4752 18.9419Z" fill="#FBE88C"/>
<path d="M23.9111 28.4205C23.6235 28.4205 23.3532 28.244 23.2474 27.9585C23.1116 27.592 23.2986 27.1848 23.6651 27.0489L25.2294 26.4691C25.596 26.3332 26.0031 26.5203 26.139 26.8868C26.2748 27.2533 26.0878 27.6605 25.7213 27.7964L24.157 28.3762C24.0758 28.4063 23.9927 28.4205 23.9111 28.4205Z" fill="#FBE88C"/>
<path d="M21.6375 50.7279L22.0046 49.9532C23.8041 46.1587 27.6288 43.7401 31.828 43.7401H41.6014C41.9967 43.7401 42.3714 43.8319 42.7041 43.9938C42.6423 43.4036 42.3763 42.8741 41.9792 42.4762C41.5225 42.0204 40.893 41.7383 40.1966 41.7383H30.4232C26.2239 41.7383 22.3993 44.1569 20.5998 47.9513L20.2327 48.726L15.3004 54.9512C15.043 55.2761 15.1898 55.7581 15.5845 55.8844L17.1541 56.3864L21.6375 50.7279Z" fill="#FFD1C2"/>
</svg>
