<svg version="1.2" xmlns="http://www.w3.org/2000/svg" xmlns:xlink="http://www.w3.org/1999/xlink" overflow="visible" preserveAspectRatio="none" viewBox="0 0 24 24" width="24" height="24"><g transform="translate(0, 0)"><defs><path id="path-1599929694371130" d="M12.000071574703115 0.05016800531867105 C5.372683514556506 0.05016800531867105 0 5.445312921136327 0 12.100407884570464 C0 18.069250534562375 4.326261355028422 23.012452158913266 9.998699726226763 23.969669200222807 C9.998699726226763 23.969669200222807 9.998699726226763 14.614414317287476 9.998699726226763 14.614414317287476 C9.998699726226763 14.614414317287476 7.103932433480261 14.614414317287476 7.103932433480261 14.614414317287476 C7.103932433480261 14.614414317287476 7.103932433480261 11.247839289885539 7.103932433480261 11.247839289885539 C7.103932433480261 11.247839289885539 9.998699726226763 11.247839289885539 9.998699726226763 11.247839289885539 C9.998699726226763 11.247839289885539 9.998699726226763 8.7654573877419 9.998699726226763 8.7654573877419 C9.998699726226763 5.8851813918387155 11.750562159647377 4.315598440335652 14.309644094788768 4.315598440335652 C15.535289310914548 4.315598440335652 16.588582641941585 4.407309578998437 16.894349773645004 4.447702729412611 C16.894349773645004 4.447702729412611 16.894349773645004 7.458358039997845 16.894349773645004 7.458358039997845 C16.894349773645004 7.458358039997845 15.11944028582165 7.4592205271953 15.11944028582165 7.4592205271953 C13.728028057283622 7.4592205271953 13.459766070011991 8.123048173503676 13.459766070011991 9.097514958762332 C13.459766070011991 9.097514958762332 13.459766070011991 11.24611431549063 13.459766070011991 11.24611431549063 C13.459766070011991 11.24611431549063 16.77983024866245 11.24611431549063 16.77983024866245 11.24611431549063 C16.77983024866245 11.24611431549063 16.34680329482217 14.612689342892567 16.34680329482217 14.612689342892567 C16.34680329482217 14.612689342892567 13.459766070011991 14.612689342892567 13.459766070011991 14.612689342892567 C13.459766070011991 14.612689342892567 13.459766070011991 24.05016800531867 13.459766070011991 24.05016800531867 C19.397030842732487 23.324528776525973 24.000000000000004 18.255404021346557 24.000000000000004 12.09695793578064 C24.000000000000007 5.445312921136327 18.627316485443497 0.05016800531867105 12.000071574703115 0.05016800531867105 Z" vector-effect="non-scaling-stroke"/></defs><g transform="translate(0, -0.05016800531867105)"><path d="M12.000071574703115 0.05016800531867105 C5.372683514556506 0.05016800531867105 0 5.445312921136327 0 12.100407884570464 C0 18.069250534562375 4.326261355028422 23.012452158913266 9.998699726226763 23.969669200222807 C9.998699726226763 23.969669200222807 9.998699726226763 14.614414317287476 9.998699726226763 14.614414317287476 C9.998699726226763 14.614414317287476 7.103932433480261 14.614414317287476 7.103932433480261 14.614414317287476 C7.103932433480261 14.614414317287476 7.103932433480261 11.247839289885539 7.103932433480261 11.247839289885539 C7.103932433480261 11.247839289885539 9.998699726226763 11.247839289885539 9.998699726226763 11.247839289885539 C9.998699726226763 11.247839289885539 9.998699726226763 8.7654573877419 9.998699726226763 8.7654573877419 C9.998699726226763 5.8851813918387155 11.750562159647377 4.315598440335652 14.309644094788768 4.315598440335652 C15.535289310914548 4.315598440335652 16.588582641941585 4.407309578998437 16.894349773645004 4.447702729412611 C16.894349773645004 4.447702729412611 16.894349773645004 7.458358039997845 16.894349773645004 7.458358039997845 C16.894349773645004 7.458358039997845 15.11944028582165 7.4592205271953 15.11944028582165 7.4592205271953 C13.728028057283622 7.4592205271953 13.459766070011991 8.123048173503676 13.459766070011991 9.097514958762332 C13.459766070011991 9.097514958762332 13.459766070011991 11.24611431549063 13.459766070011991 11.24611431549063 C13.459766070011991 11.24611431549063 16.77983024866245 11.24611431549063 16.77983024866245 11.24611431549063 C16.77983024866245 11.24611431549063 16.34680329482217 14.612689342892567 16.34680329482217 14.612689342892567 C16.34680329482217 14.612689342892567 13.459766070011991 14.612689342892567 13.459766070011991 14.612689342892567 C13.459766070011991 14.612689342892567 13.459766070011991 24.05016800531867 13.459766070011991 24.05016800531867 C19.397030842732487 23.324528776525973 24.000000000000004 18.255404021346557 24.000000000000004 12.09695793578064 C24.000000000000007 5.445312921136327 18.627316485443497 0.05016800531867105 12.000071574703115 0.05016800531867105 Z" style="stroke-width: 0; stroke-linecap: butt; stroke-linejoin: miter; fill: rgb(255, 255, 255);" vector-effect="non-scaling-stroke"/></g></g></svg>