<svg width="12" height="12" viewBox="0 0 12 12" fill="none" xmlns="http://www.w3.org/2000/svg">
<path d="M2.73886 3.74302V11.52H0.149255V3.74302H2.73886ZM2.9035 1.34206C2.90398 1.35598 2.90446 1.3723 2.90446 1.3891C2.90446 1.74862 2.75182 2.07214 2.50798 2.2987L2.50702 2.29918C2.24542 2.53822 1.8955 2.68462 1.51102 2.68462C1.4875 2.68462 1.4635 2.68414 1.43998 2.68318H1.44334H1.4275C1.40782 2.68414 1.38478 2.68462 1.36174 2.68462C0.985415 2.68462 0.643655 2.53774 0.389735 2.2987L0.390215 2.29918C0.148295 2.06494 -0.00146484 1.73758 -0.00146484 1.37518C-0.00146484 1.36366 -0.00146484 1.35214 -0.000984844 1.34014V1.34206C-0.00146484 1.33198 -0.00146484 1.32046 -0.00146484 1.30894C-0.00146484 0.943184 0.154055 0.613903 0.402215 0.383023L0.403175 0.382543C0.664295 0.144943 1.01326 -0.000976562 1.39582 -0.000976562C1.4179 -0.000976562 1.4395 -0.000496563 1.46158 0.000463438H1.4587C1.47934 -0.000496563 1.50286 -0.000976562 1.52734 -0.000976562C1.90414 -0.000976562 2.24734 0.144463 2.50366 0.382063L2.5027 0.381103C2.7499 0.619663 2.9035 0.953743 2.9035 1.32382V1.34398V1.34302V1.34206ZM12.0533 7.06366V11.52H9.47182V7.36078C9.47422 7.32286 9.47518 7.2787 9.47518 7.23454C9.47518 6.80446 9.35566 6.4027 9.14782 6.05998L9.15358 6.07006C8.94862 5.78398 8.61742 5.60014 8.2435 5.60014C8.2147 5.60014 8.1859 5.6011 8.1571 5.6035H8.16094C8.14798 5.60302 8.1331 5.60254 8.11822 5.60254C7.82062 5.60254 7.54702 5.70478 7.33054 5.87614L7.33342 5.87422C7.11598 6.05038 6.94558 6.2755 6.83806 6.53422L6.83422 6.54526C6.77854 6.71566 6.74686 6.9115 6.74686 7.11502C6.74686 7.13806 6.74734 7.1611 6.7483 7.18414V7.18078V11.5209H4.16686C4.17742 9.43358 4.1827 7.7411 4.1827 6.4435C4.1827 5.1459 4.18014 4.37166 4.17502 4.12078L4.16734 3.74398H6.74878V4.8739H6.73294C6.83566 4.7083 6.94174 4.56478 7.05838 4.43038L7.05454 4.4347C7.18942 4.28638 7.33438 4.15246 7.49038 4.03246L7.49806 4.0267C7.69198 3.87742 7.9195 3.7603 8.16622 3.68878L8.18062 3.68542C8.43886 3.60814 8.73598 3.5635 9.04318 3.5635H9.0811H9.07918C9.11326 3.56206 9.1531 3.5611 9.19294 3.5611C9.99982 3.5611 10.7265 3.90382 11.2358 4.45198L11.2373 4.4539C11.7819 5.04782 12.0542 5.91758 12.0542 7.06318L12.0533 7.06366Z" fill="white"/>
</svg>
