<svg width="6" height="21" viewBox="0 0 6 21" fill="none" xmlns="http://www.w3.org/2000/svg">
<path d="M1.11029 1.11029L1.1103 1.11029C1.92397 0.296579 3.24329 0.296559 4.05706 1.1103C4.87077 1.92401 4.87077 3.24333 4.05705 4.05705C3.24333 4.87077 1.92402 4.87077 1.11029 4.05705C0.296569 3.24333 0.296569 1.92401 1.11029 1.11029Z" stroke="#333333"/>
<mask id="path-2-inside-1_399_6288" fill="white">
<path d="M4.41061 8.50674C5.41959 9.51572 5.41959 11.1516 4.41061 12.1606C3.40162 13.1696 1.76572 13.1696 0.756739 12.1606C-0.252246 11.1516 -0.252246 9.51572 0.756739 8.50674C1.76568 7.49775 3.40158 7.49775 4.41061 8.50674Z"/>
</mask>
<path d="M0.756739 8.50674L1.46385 9.21385L1.46386 9.21383L0.756739 8.50674ZM3.7035 9.21385C4.32196 9.83231 4.32196 10.835 3.7035 11.4535L5.11771 12.8677C6.51722 11.4682 6.51722 9.19914 5.11771 7.79963L3.7035 9.21385ZM3.7035 11.4535C3.08504 12.072 2.08231 12.072 1.46385 11.4535L0.049632 12.8677C1.44914 14.2672 3.7182 14.2672 5.11771 12.8677L3.7035 11.4535ZM1.46385 11.4535C0.845385 10.835 0.845385 9.83231 1.46385 9.21385L0.049632 7.79963C-1.34988 9.19914 -1.34988 11.4682 0.049632 12.8677L1.46385 11.4535ZM1.46386 9.21383C2.08226 8.5954 3.08499 8.59536 3.70351 9.21386L5.1177 7.79962C3.71817 6.40014 1.44911 6.4001 0.0496179 7.79965L1.46386 9.21383Z" fill="#333333" mask="url(#path-2-inside-1_399_6288)"/>
<mask id="path-4-inside-2_399_6288" fill="white">
<path d="M4.41061 16.2567C5.41959 17.2657 5.41959 18.9016 4.41061 19.9106C3.40162 20.9196 1.76572 20.9196 0.756739 19.9106C-0.252246 18.9016 -0.252246 17.2657 0.756739 16.2567C1.76568 15.2478 3.40158 15.2478 4.41061 16.2567Z"/>
</mask>
<path d="M0.756739 16.2567L1.46385 16.9638L1.46386 16.9638L0.756739 16.2567ZM3.7035 16.9638C4.32196 17.5823 4.32196 18.585 3.7035 19.2035L5.11771 20.6177C6.51722 19.2182 6.51722 16.9491 5.11771 15.5496L3.7035 16.9638ZM3.7035 19.2035C3.08504 19.822 2.08231 19.822 1.46385 19.2035L0.049632 20.6177C1.44914 22.0172 3.7182 22.0172 5.11771 20.6177L3.7035 19.2035ZM1.46385 19.2035C0.845385 18.585 0.845385 17.5823 1.46385 16.9638L0.049632 15.5496C-1.34988 16.9491 -1.34988 19.2182 0.049632 20.6177L1.46385 19.2035ZM1.46386 16.9638C2.08226 16.3454 3.08499 16.3454 3.70351 16.9639L5.1177 15.5496C3.71817 14.1501 1.44911 14.1501 0.049618 15.5496L1.46386 16.9638Z" fill="#333333" mask="url(#path-4-inside-2_399_6288)"/>
</svg>
