<svg width="45" height="45" viewBox="0 0 45 45" fill="none" xmlns="http://www.w3.org/2000/svg">
<g clip-path="url(#clip0_399_6219)">
<path d="M22.5 45C34.9264 45 45 34.9264 45 22.5C45 10.0736 34.9264 0 22.5 0C10.0736 0 0 10.0736 0 22.5C0 34.9264 10.0736 45 22.5 45Z" fill="#5EB3D1"/>
<path d="M22.6057 32.1719C22.5703 32.1719 22.5349 32.2073 22.464 32.2073C22.4286 32.2073 22.3931 32.1719 22.3223 32.1719H22.6057Z" fill="#E6E9EE"/>
<path d="M40.6057 35.7862C36.5309 41.3492 29.9049 44.9988 22.464 44.9988C15.0231 44.9988 8.4325 41.3846 4.32227 35.7862C7.51124 32.3846 11.8341 30.5775 15.4482 29.6562C15.1294 32.2429 16.4758 35.7153 16.5112 35.609C17.8577 32.4909 22.4286 32.2074 22.4286 32.2074C22.4286 32.2074 26.9994 32.4555 28.3813 35.609C28.4168 35.6799 29.7632 32.2429 29.4443 29.6562C33.0939 30.5775 37.4168 32.3846 40.6057 35.7862Z" fill="#E6E9EE"/>
<path d="M28.0621 27.2828C28.0621 27.7434 27.7786 30.1883 22.6054 32.1725H22.3219C17.1487 30.1883 16.8652 27.7434 16.8652 27.2828C16.9007 26.3615 17.1133 25.4402 17.503 24.5898C18.9204 26.1843 20.6211 27.2473 22.4637 27.2473C24.2707 27.2473 26.007 26.2198 27.4243 24.5898C27.814 25.4402 28.0621 26.3615 28.0621 27.2828Z" fill="#FFD05B"/>
<path d="M25.5462 32.9905L24.4124 35.2582H20.5147L19.3809 32.9905C20.9399 32.3172 22.4635 32.2109 22.4635 32.2109C22.4635 32.2109 24.0226 32.3172 25.5462 32.9905Z" fill="#F1543F"/>
<path d="M19.3105 44.7851C20.3381 44.9269 21.4011 44.9977 22.4995 44.9977C23.5625 44.9977 24.6255 44.9269 25.6885 44.7851L24.4483 35.2891H20.5507L19.3105 44.7851Z" fill="#FF7058"/>
<path d="M28.0633 27.2148C28.0633 27.2148 28.3113 30.0495 22.4648 32.2109C22.4648 32.2109 27.0357 32.4589 28.4176 35.6125C28.453 35.7542 31.1105 28.8802 28.0633 27.2148Z" fill="#333333"/>
<path d="M16.8661 27.2148C13.8543 28.8802 16.4764 35.7188 16.5472 35.6125C17.8937 32.4944 22.5 32.2109 22.5 32.2109C16.6181 30.0495 16.8661 27.2148 16.8661 27.2148Z" fill="#333333"/>
<path d="M27.7089 25.2985C26.2207 26.893 24.449 27.9205 22.4648 27.9205C20.4805 27.9205 18.7089 26.893 17.2207 25.2985C17.2916 25.0505 17.3979 24.8024 17.5042 24.5898C18.9215 26.1843 20.6223 27.2473 22.4648 27.2473C24.3073 27.2473 26.0081 26.2198 27.4254 24.5898C27.5317 24.8024 27.638 25.0505 27.7089 25.2985Z" fill="#F9B54C"/>
<path d="M32.1371 19.8766C31.393 21.1167 30.2592 21.8608 29.4088 21.7191C27.708 24.8726 25.2277 27.2112 22.4639 27.2112C19.7001 27.2112 17.2198 24.8372 15.519 21.7191C14.6686 21.8254 13.5347 21.1167 12.7906 19.8766C11.9048 18.4238 11.8694 16.8293 12.7198 16.2978C12.9324 16.1915 13.145 16.1207 13.393 16.1561C13.9599 17.6089 14.7395 18.4947 14.7395 18.4947C13.9245 13.9947 17.2552 13.4986 16.6883 9.17578C16.6883 9.17578 18.7788 13.8175 24.767 10.5577L24.3064 11.4435C32.6686 9.56554 29.8694 19.4159 29.7985 19.664C30.7552 18.4592 31.3576 17.2545 31.7119 16.1561C31.8536 16.1561 32.0308 16.227 32.1371 16.2978C33.0584 16.7939 33.0229 18.4238 32.1371 19.8766Z" fill="#FFD05B"/>
<path d="M27.2825 4.49983C27.9558 4.42896 29.0542 5.03133 29.0542 5.03133C26.0424 1.59432 21.1172 3.79117 21.1172 3.79117C22.7825 2.37385 24.2707 2.51558 24.2707 2.51558C17.2196 1.45259 16.0148 5.66912 16.0148 5.66912C15.6959 5.17306 15.6959 4.4644 15.7314 4.11007C15.2353 4.96046 15.7668 6.66125 15.7668 6.66125C15.2707 5.42109 13.5345 5.63369 13.5345 5.63369C15.0227 5.88172 15.2707 6.80298 15.2707 6.80298C11.5503 8.18487 12.1881 12.0471 12.1881 12.0471L13.0739 10.9841C11.9755 15.2006 14.7747 18.4605 14.7747 18.4605C13.9597 13.9605 17.2904 13.4644 16.7235 9.14156C16.7235 9.14156 18.814 13.7833 24.8022 10.5235L24.3416 11.4093C32.8101 9.49589 29.8337 19.6652 29.8337 19.6652C32.8455 15.8384 32.3849 11.9053 32.3849 11.9053L32.7392 13.3227C33.6959 6.94471 27.2825 4.49983 27.2825 4.49983Z" fill="#324A5E"/>
</g>
<defs>
<clipPath id="clip0_399_6219">
<rect width="45" height="45" fill="white"/>
</clipPath>
</defs>
</svg>
